<?xml version="1.0" encoding="utf-8"?>
<!-- Generator: Adobe Illustrator 27.0.0, SVG Export Plug-In . SVG Version: 6.00 Build 0)  -->
<svg version="1.1" id="Layer_1" xmlns="http://www.w3.org/2000/svg" xmlns:xlink="http://www.w3.org/1999/xlink" x="0px" y="0px"
	 viewBox="0 0 1080 1080" style="enable-background:new 0 0 1080 1080;" xml:space="preserve">
<style type="text/css">
	.st0{fill:#B5651D;}
	.st1{fill:#FFFFFF;}
	.st2{fill:#010102;}
	.st3{fill:#FDFDFE;}
	.st4{fill:#C03828;}
	.st5{fill:#8B4513;}
	.st6{fill:#FEFDFE;}
	.st7{fill:#020102;}
	.st8{fill:#FDFDFD;}
</style>
<g>
	<g>
		<g>
			<path d="M809.56,548.67c-33.44-5.25-58.45-43.15-73.59-74.04c0-0.02-0.02-0.02-0.02-0.02c-4.7-9.57-9.07-19.85-13.06-30.54
				c-0.04-0.08-0.06-0.18-0.1-0.26c-9.09-24.5-15.78-50.64-18.37-71.85c-1.28-10.55-1.89-20.66-1.8-29.97v-0.34
				c0.02-0.95,0.04-1.87,0.04-2.8c-0.22-0.12-0.39-0.24-0.57-0.34c0.32-11.92,1.74-21.5,3.43-28.94c0.24-0.18,0.47-0.34,0.71-0.49
				c0.22-0.91,0.41-1.78,0.65-2.62c0.04-0.14,0.08-0.3,0.12-0.43c3.1-11.6,6.77-16.97,6.81-17.03l0.91-1.32l-1.54,0.43
				c-30.12,8.38-44.13-20.58-44.27-20.85l-0.22-0.47L439.92,343.3l-0.41,0.12l0.02,0.43c0.71,40.4-26.46,50.78-26.73,50.9
				l-2.13,0.77l2.25,0.34c58.18,8.88,85.52,105.76,85.8,106.75c37.13,124.15-2.37,155.64-4.06,156.92l-2.43,1.82l2.9-0.79
				c1.42-0.12,27.92-2.15,41.88,17.14l0.2,0.28l0.36-0.04c0.18-0.02,17.24-2.25,27.4-0.83l0.02,0.04h0.43l33.56-11.92l1.22-0.43
				l32.67-11.6l1.1-0.39l19.25-6.85l1.22-0.43l35.27-12.53l1.2-0.43l97.48-34.62l0.39-0.14l-0.02-0.41
				c-1.07-40.42,20.64-47.56,20.85-47.62l2.41-0.75L809.56,548.67z M440.73,344.28l23.46-7.85c0.22,8.05-0.28,26.42-7.91,39.67
				c-3.33,5.74-8.62,10.28-14.91,12.78c-1.87,0.77-3.87,1.34-5.92,1.72L416.85,394C424.43,389.56,441.12,376.1,440.73,344.28z
				 M497.21,658.81c7.85-7.93,35.81-45.53,2.62-156.48c-0.08-0.24-6.92-24.9-20.97-50.33c-12.55-22.73-33.46-50.58-62.66-56.68
				l19.45-3.57c2.05-0.37,4.02-0.95,5.9-1.68c10.22,4.18,44.23,21.62,67.06,74.91c24.4,56.96,44.68,152.74,13.43,187.6
				c-2.15,0.22-4.34,0.63-6.49,1.22L497.21,658.81z M537.75,676.76c-11.01-14.95-29.36-17.24-38.02-17.44l16.16-4.42
				c2.17-0.59,4.36-1.01,6.53-1.2c2.86-0.3,5.68-0.26,8.44,0.12c19.12,2.74,30.54,17.95,33.3,22.06
				C554.6,674.79,540.16,676.49,537.75,676.76z M787.63,597.04l-222.06,78.87c-1.85-2.9-13.75-20.26-34.54-23.24
				c-1.62-0.22-3.26-0.34-4.89-0.34c-0.81,0-1.6,0.04-2.41,0.1c30.44-35.96,10.32-131.15-14.03-187.91
				c-22.29-52-55.24-70.17-66.66-75.11c5.96-2.68,10.99-7.14,14.24-12.72c7.91-13.71,8.31-32.67,8.05-40.64l202.81-67.83
				c1.95,3.71,16,28.27,43.99,21.41c-1.28,2.25-3.95,7.58-6.31,16.55c-0.28,1.07-0.55,2.13-0.81,3.29
				c-1.99,8.74-3.16,18.51-3.45,29.06c-0.02,1.03-0.04,2.07-0.06,3.12c-0.12,9.49,0.49,19.73,1.8,30.48
				c2.6,21.35,9.35,47.72,18.52,72.36c3.99,10.75,8.42,21.09,13.12,30.68c14.95,30.54,39.57,67.9,72.54,74.34
				C802.13,552.22,786.86,563.03,787.63,597.04z"/>
		</g>
		<g>
			<path class="st0" d="M564.16,675.87c-9.57-1.09-24.01,0.61-26.42,0.89c-11.01-14.95-29.36-17.24-38.02-17.44l16.16-4.42
				c2.17-0.59,4.36-1.01,6.53-1.2c2.86-0.3,5.68-0.26,8.44,0.12C549.96,656.56,561.38,671.77,564.16,675.87z"/>
		</g>
		<g>
			<path class="st1" d="M807.47,549.49c-32.97-6.41-57.59-43.8-72.54-74.34c-4.7-9.61-9.13-19.93-13.12-30.68
				c-9.17-24.64-15.92-51.02-18.52-72.36c-1.3-10.73-1.91-20.99-1.8-30.48c0.02-1.07,0.04-2.11,0.06-3.12
				c0.3-10.55,1.46-20.32,3.45-29.06c0.26-1.14,0.53-2.23,0.81-3.29c2.35-8.98,5.01-14.3,6.31-16.55
				c-27.99,6.87-42.04-17.68-43.99-21.41l-202.81,67.83c0.24,7.97-0.14,26.93-8.05,40.64c-3.26,5.58-8.29,10.04-14.24,12.72
				c11.42,4.93,44.37,23.08,66.66,75.11c24.32,56.76,44.47,151.95,14.03,187.91c0.81-0.06,1.6-0.1,2.41-0.1
				c1.66,0,3.29,0.12,4.89,0.34c20.79,2.98,32.71,20.36,34.54,23.24l222.06-78.87C786.86,563.03,802.13,552.22,807.47,549.49z
				 M760.6,542.06c-0.06,0.12-6,11.13-8.62,23.4l-0.08,0.32l-177.1,60.92l-0.26-0.28c-0.08-0.08-7.87-8.54-17.78-12.94l-0.37-0.18
				l0.04-0.41c0.02-0.28,2.35-28.41-4.97-69.05c-6.75-37.5-23.32-93.67-63.94-148.18l-0.3-0.41l0.37-0.36
				c0.08-0.08,8.03-7.89,9.51-23l0.04-0.37l0.36-0.12l164.95-56.54l0.24,0.16c0.12,0.08,12.96,8.23,22.21,11.76l0.37,0.16
				l-0.02,0.41c0,0.32-0.49,32.73,8.54,75.12c8.31,39.1,26.63,94.95,66.76,138.97l0.28,0.3L760.6,542.06z"/>
		</g>
		<g>
			<path class="st0" d="M456.27,376.1c-3.33,5.74-8.62,10.28-14.91,12.78c-1.87,0.77-3.87,1.34-5.92,1.72L416.85,394
				c7.58-4.46,24.27-17.91,23.85-49.73l23.46-7.85C464.4,344.48,463.91,362.85,456.27,376.1z"/>
		</g>
		<g>
			<path class="st0" d="M522.06,652.55c-2.15,0.22-4.34,0.63-6.49,1.22l-18.37,5.03c7.85-7.93,35.81-45.53,2.62-156.48
				c-0.08-0.24-6.92-24.9-20.97-50.33c-12.55-22.73-33.46-50.58-62.66-56.68l19.45-3.57c2.05-0.37,4.02-0.95,5.9-1.68
				c10.22,4.18,44.23,21.62,67.06,74.91C533.03,521.93,553.29,617.7,522.06,652.55z"/>
		</g>
		<g>
			<path d="M760.52,541.39c-40.11-43.99-58.43-99.84-66.76-138.97c-9.02-42.4-8.54-74.79-8.54-75.12l0.02-0.41l-0.37-0.16
				c-9.25-3.53-22.08-11.66-22.21-11.76l-0.24-0.16l-164.95,56.54l-0.36,0.12l-0.04,0.37c-1.48,15.11-9.43,22.92-9.51,23l-0.37,0.36
				l0.3,0.41c40.62,54.51,57.19,110.68,63.94,148.18c7.32,40.64,5.01,68.77,4.97,69.05l-0.04,0.41l0.37,0.18
				c9.9,4.4,17.7,12.84,17.78,12.94l0.26,0.28l177.1-60.92l0.08-0.32c2.64-12.27,8.56-23.28,8.62-23.4l0.2-0.36L760.52,541.39z
				 M750.91,564.88l-175.78,60.47c-1.44-1.5-8.58-8.7-17.52-12.76c0.26-3.63,1.85-30.8-5.01-68.89
				c-6.75-37.56-23.32-93.73-63.86-148.32c1.62-1.72,8.03-9.33,9.47-22.98l164.06-56.25c1.78,1.1,13.18,8.19,21.8,11.56
				c-0.02,3.89,0.06,35,8.54,74.97c8.34,39.16,26.67,95.07,66.76,139.22C758.35,543.87,753.34,553.84,750.91,564.88z"/>
		</g>
		<g>
			<path class="st0" d="M692.62,402.66c-8.48-39.95-8.56-71.06-8.54-74.97c-8.62-3.37-20.02-10.46-21.8-11.56l-164.06,56.25
				c-1.44,13.63-7.85,21.25-9.47,22.98c40.54,54.59,57.11,110.75,63.86,148.32c6.87,38.11,5.27,65.26,5.01,68.89
				c8.94,4.08,16.08,11.26,17.52,12.76l175.78-60.47c2.45-11.05,7.44-20.99,8.48-23C719.29,497.73,700.96,441.82,692.62,402.66z
				 M629.62,370.03c4.04-3.65,9.33-5.72,14.72-5.86c6.06-0.16,14.66,1.5,22.49,9.94c0.67,0.73,1.12,1.66,1.2,2.64
				c0.08,1.09-0.22,2.45-1.72,3.49c-3,2.11-5.6-0.1-5.6-0.1s-14.89-12.11-28.53,2.53c0,0-2.19,2.37-4.97,1.4
				c-1.62-0.57-2.6-2.15-2.64-3.85C624.55,377.84,625.28,373.95,629.62,370.03z M642.45,389.8c15.68-4.38,33.24,9.29,39.2,30.6
				c5.96,21.29-1.93,42.1-17.62,46.5c-15.68,4.38-33.24-9.31-39.2-30.6C618.85,415.01,626.76,394.17,642.45,389.8z M549.15,414.99
				c-1.87-0.12-2.86-1.2-3.37-2.27c-0.47-0.97-0.57-2.07-0.37-3.12c2.35-12.27,8.98-18.7,14.34-21.98
				c4.77-2.92,10.53-4.02,16.02-2.94c5.9,1.16,8.64,4.36,9.86,6.59c0.89,1.6,0.87,3.61-0.26,5.07c-1.91,2.49-5.09,1.54-5.09,1.54
				c-19.79-5.82-26.3,13.83-26.3,13.83S552.9,415.24,549.15,414.99z M555.48,456.34c-5.96-21.29,1.93-42.12,17.62-46.5
				c15.68-4.38,33.24,9.29,39.2,30.6c5.96,21.29-1.93,42.1-17.62,46.5C579,491.32,561.44,477.63,555.48,456.34z M589.18,491.02
				l-0.51,1.05c-8.98-4.52-17.24,2.39-17.32,2.47l-0.77-0.89C570.68,493.57,579.49,486.15,589.18,491.02z M632.98,560.72
				c-6.04,0-10.04-0.81-10.16-0.83l0.24-1.14c0.36,0.08,34.92,6.92,54.71-20.77l0.95,0.67
				C665.23,557.54,645.03,560.72,632.98,560.72z M695.59,466.36c-0.12-0.08-2.94-1.66-6.21,0.83c-0.32,0.24-0.63,0.49-0.99,0.75
				c-1.12,0.89-2.54,1.99-4.28,3.08c2.01,13.53,0.57,42.67-19.08,58.81c-0.04,0.04-0.08,0.08-0.12,0.12
				c-6.43,5.25-14.34,8.7-23.48,10.22c-3.24,0.43-6.41,0.63-9.51,0.63c-12.61,0-24.01-3.53-33.97-10.53
				c-11.52-8.09-17.91-18.62-20.38-23.38c-5.58,3.71-10.97,6.29-11.4,6.49l-0.49-1.05c0.2-0.1,20-9.57,23.14-18.23l1.09,0.39
				c-0.34,0.91-0.83,1.85-1.46,2.74c9.67,1.72,24.9,2.47,43.93-2.96c27.19-7.77,35.83-15.21,38.55-18.84
				c-0.81,0.08-1.64,0.1-2.51,0.1c-1.03,0-2.11-0.04-3.24-0.16l0.12-1.16c11.74,1.12,18.41-4.1,22.41-7.22
				c0.36-0.28,0.69-0.55,1.01-0.77c3.93-2.96,7.36-0.99,7.52-0.91L695.59,466.36z"/>
		</g>
	</g>
	<g>
		<g>
			<g>
				<path class="st2" d="M612.3,440.44c-5.96-21.29-23.52-34.98-39.2-30.6c-15.68,4.38-23.58,25.21-17.62,46.5
					c5.96,21.29,23.52,34.98,39.2,30.6C610.37,482.54,618.26,461.72,612.3,440.44z M608.57,466.16
					c-2.53,8.46-7.87,14.84-15.25,16.91c-13.65,3.83-29.06-8.6-34.43-27.74c-5.37-19.14,1.36-37.76,15.01-41.59
					c6.06-1.7,12.45-0.2,18.17,3.69h0.02c7.18,4.85,13.26,13.42,16.24,24.07C610.8,450.28,610.72,458.96,608.57,466.16z"/>
			</g>
		</g>
		<g>
			<path class="st2" d="M608.57,466.16c-1.99,2.92-4.66,5.01-7.85,5.92c-10,2.8-21.54-7.14-25.76-22.21
				c-0.16-0.55-0.3-1.1-0.43-1.66l8.54-8.44c0.36-0.36,0.53-0.83,0.53-1.28c0-0.49-0.2-1.01-0.61-1.36
				c-1.72-1.54-4.28-1.66-6.12-0.26l-3.47,2.62c-0.18-10.85,4.38-19.83,12.03-21.98c2.17-0.61,4.42-0.61,6.65-0.1h0.02
				c7.18,4.85,13.26,13.42,16.24,24.07C610.8,450.28,610.72,458.96,608.57,466.16z"/>
		</g>
		<g>
			<path class="st3" d="M608.57,466.16c-2.53,8.46-7.87,14.84-15.25,16.91c-13.65,3.83-29.06-8.6-34.43-27.74
				c-5.37-19.14,1.36-37.76,15.01-41.59c6.06-1.7,12.45-0.2,18.17,3.69c-2.23-0.51-4.48-0.51-6.65,0.1
				c-7.65,2.15-12.19,11.13-12.03,21.98l3.47-2.62c1.83-1.4,4.4-1.28,6.12,0.26c0.41,0.36,0.61,0.87,0.61,1.36
				c0,0.47-0.18,0.93-0.53,1.28l-8.54,8.44c0.12,0.55,0.28,1.1,0.43,1.66c4.22,15.07,15.76,25.02,25.76,22.21
				C603.92,471.17,606.58,469.1,608.57,466.16z"/>
		</g>
	</g>
	<g>
		<g>
			<g>
				<path class="st2" d="M681.65,420.37c-5.96-21.29-23.52-34.98-39.2-30.6c-15.68,4.38-23.58,25.21-17.62,46.5
					c5.96,21.29,23.52,34.98,39.2,30.6C679.71,462.49,687.6,441.68,681.65,420.37z M677.92,446.12
					c-2.53,8.46-7.87,14.84-15.25,16.91c-13.65,3.83-29.06-8.6-34.43-27.74c-5.37-19.14,1.36-37.76,15.01-41.59
					c6.06-1.7,12.45-0.2,18.17,3.69h0.02c7.18,4.85,13.26,13.42,16.24,24.07C680.15,430.24,680.07,438.92,677.92,446.12z"/>
			</g>
		</g>
		<g>
			<path class="st2" d="M677.92,446.12c-1.99,2.92-4.66,5.01-7.85,5.92c-10,2.8-21.54-7.14-25.77-22.21
				c-0.16-0.55-0.3-1.1-0.43-1.66l8.54-8.44c0.36-0.36,0.53-0.83,0.53-1.28c0-0.49-0.2-1.01-0.61-1.36
				c-1.72-1.54-4.28-1.66-6.12-0.26l-3.47,2.62c-0.18-10.85,4.38-19.83,12.03-21.98c2.17-0.61,4.42-0.61,6.65-0.1h0.02
				c7.18,4.85,13.26,13.42,16.24,24.07C680.15,430.24,680.07,438.92,677.92,446.12z"/>
		</g>
		<g>
			<path class="st3" d="M677.92,446.12c-2.53,8.46-7.87,14.84-15.25,16.91c-13.65,3.83-29.06-8.6-34.43-27.74
				c-5.37-19.14,1.36-37.76,15.01-41.59c6.06-1.7,12.45-0.2,18.17,3.69c-2.23-0.51-4.48-0.51-6.65,0.1
				c-7.65,2.15-12.19,11.13-12.03,21.98l3.47-2.62c1.83-1.4,4.4-1.28,6.12,0.26c0.41,0.36,0.61,0.87,0.61,1.36
				c0,0.47-0.18,0.93-0.53,1.28l-8.54,8.44c0.12,0.55,0.28,1.1,0.43,1.66c4.22,15.07,15.76,25.02,25.76,22.21
				C673.26,451.13,675.93,449.04,677.92,446.12z"/>
		</g>
	</g>
	<g>
		<path class="st2" d="M585.39,396.35c-1.91,2.49-5.09,1.54-5.09,1.54c-19.79-5.82-26.3,13.83-26.3,13.83s-1.09,3.51-4.83,3.27
			c-1.87-0.12-2.86-1.2-3.37-2.27c-0.47-0.97-0.57-2.07-0.37-3.12c2.35-12.27,8.98-18.7,14.34-21.98
			c4.77-2.92,10.53-4.02,16.02-2.94c5.9,1.16,8.64,4.36,9.86,6.59C586.54,392.87,586.5,394.89,585.39,396.35z"/>
	</g>
	<g>
		<path class="st2" d="M666.34,380.25c-3,2.11-5.6-0.1-5.6-0.1s-14.89-12.11-28.53,2.53c0,0-2.19,2.37-4.97,1.4
			c-1.62-0.57-2.6-2.15-2.64-3.85c-0.04-2.35,0.69-6.25,5.03-10.18c4.04-3.65,9.33-5.72,14.72-5.86c6.06-0.16,14.66,1.5,22.49,9.94
			c0.67,0.73,1.12,1.66,1.2,2.64C668.13,377.84,667.84,379.18,666.34,380.25z"/>
	</g>
	<g>
		<path class="st1" d="M389.08,791.28l0.41-1.64c1.18-4.62,6.85-19.91,11.4-31.94l0.18-0.49l25.49-7.83l32.06,28.45L389.08,791.28z
			 M402.73,758.95c-5.52,14.58-9.23,24.88-10.67,29.55l61.89-11.98l-27.9-24.76L402.73,758.95z"/>
	</g>
	<g>
		<g>
			<path class="st1" d="M414.68,625.39c-0.06,2.49-2.13,4.46-4.62,4.38c-2.47-0.06-4.44-2.13-4.38-4.62
				c0.06-2.03,1.46-3.71,3.31-4.22c-0.36,0.79-0.69,1.64-1.05,2.54c-0.37,0.47-0.61,1.07-0.63,1.72c-0.04,1.58,1.2,2.88,2.78,2.94
				c1.54,0.04,2.84-1.14,2.94-2.68v-0.02c0.32-0.85,0.65-1.66,0.99-2.47C414.49,623.67,414.72,624.5,414.68,625.39z"/>
		</g>
		<g>
			<path class="st2" d="M534.47,489.13c-0.12,4.36-3.08,86.29-49.54,107.56c-3.81,1.74-8.38,1.91-13.24,0.49
				c-1.97-0.59-12.15-4.1-20.22-8.86c1.8,0.43,3.61,0.69,5.48,0.73c0.89,0.02,1.8,0.02,2.68-0.06
				c12.45-1.97,19.16-10.55,22.61-17.44c4.16-8.33,5.62-18.72,4.16-26.89c4.3-1.62,9.75-1.32,9.79-1.32l0.37,0.02l0.18-0.34
				c7.95-15.29,16.69-66.46,18.03-74.41C517.69,470.92,528.24,479.56,534.47,489.13z"/>
		</g>
		<g>
			<path class="st1" d="M460.16,553.89c0,0.16-0.02,0.3-0.04,0.45v0.06c-0.02,0.18-0.04,0.37-0.06,0.55
				c-0.02,0.22-0.06,0.43-0.1,0.65c-0.02,0.22-0.08,0.41-0.12,0.63c-0.04,0.22-0.1,0.41-0.14,0.63c-0.16,0.65-0.37,1.32-0.65,1.97
				c-0.08,0.24-0.18,0.45-0.3,0.67c-0.22,0.45-0.45,0.91-0.73,1.36c-0.14,0.22-0.28,0.45-0.43,0.67c-0.34,0.51-0.73,1.01-1.18,1.5
				c-0.14,0.18-0.3,0.34-0.45,0.49v0.02c-0.95,1.01-2.13,1.95-3.55,2.84c-5.78,3.57-8.19,7.06-9.77,9.37
				c-0.41,0.61-0.79,1.14-1.18,1.6c-0.3,0.34-0.63,0.65-0.97,0.91v0.02c-0.12,0.1-0.24,0.2-0.36,0.26
				c-0.36,0.26-0.73,0.47-1.12,0.65c-0.02,0.02-0.04,0.02-0.08,0.04c-0.16,0.08-0.34,0.14-0.51,0.22c0,0,0,0-0.02,0
				c-0.18,0.06-0.34,0.12-0.51,0.16c-0.16,0.06-0.34,0.1-0.49,0.12c-0.24,0.06-0.47,0.1-0.71,0.12c-0.26,0.02-0.53,0.04-0.79,0.04
				c-0.16,0-0.3,0-0.43-0.02c-0.04,0-0.1,0-0.16-0.02c-0.18-0.02-0.37-0.04-0.55-0.08c-0.57-0.08-1.12-0.26-1.66-0.47
				c-0.1-0.04-0.2-0.08-0.3-0.14c-0.02,0-0.02-0.02-0.02-0.02c-0.18-0.08-0.36-0.18-0.51-0.28c-0.02,0-0.02,0-0.02-0.02
				c-0.06-0.04-0.14-0.08-0.2-0.12c-0.37-0.22-0.71-0.49-1.03-0.79c-0.18-0.16-0.34-0.32-0.49-0.49
				c-5.31-6.16-5.41-20.34,2.37-30.12c3.39-4.28,8.33-7,13.53-7.52c0.71-0.08,1.38-0.1,2.03-0.08c9.65,0.26,11.36,9.71,11.44,10.16
				C459.92,550.07,460.3,551.65,460.16,553.89z"/>
			<path class="st2" d="M435.89,580.43c-0.18,0-0.34-0.02-0.49-0.02c-0.06,0-0.14,0-0.24-0.04c-0.14,0-0.36-0.02-0.53-0.08
				c-0.55-0.08-1.14-0.26-1.76-0.49c-0.06-0.02-0.14-0.06-0.22-0.1h-0.12l-0.1-0.1c-0.12-0.06-0.24-0.12-0.36-0.2h-0.39v-0.26
				c0,0,0,0-0.02,0c-0.3-0.18-0.67-0.45-1.05-0.81c-0.18-0.16-0.36-0.34-0.51-0.53c-5.44-6.31-5.58-20.83,2.35-30.82
				c3.49-4.4,8.56-7.2,13.91-7.71c0.67-0.08,1.36-0.1,2.09-0.08c10.04,0.28,11.88,10.18,11.96,10.61c0.04,0.14,0.43,1.76,0.28,4.1
				c0,0.14-0.02,0.3-0.04,0.45c-0.02,0.3-0.04,0.49-0.08,0.69c-0.04,0.24-0.06,0.45-0.1,0.67c-0.02,0.2-0.08,0.43-0.14,0.65
				c-0.02,0.14-0.06,0.32-0.12,0.49c-0.2,0.85-0.43,1.54-0.71,2.19c-0.08,0.22-0.2,0.45-0.32,0.69c-0.2,0.43-0.45,0.91-0.75,1.4
				c-0.14,0.22-0.3,0.45-0.45,0.69c-0.37,0.57-0.77,1.09-1.22,1.56c-0.1,0.12-0.2,0.24-0.32,0.36l-0.14,0.16
				c-1.03,1.07-2.25,2.05-3.65,2.92c-5.64,3.49-8.03,6.9-9.59,9.17c-0.43,0.63-0.83,1.2-1.24,1.68c-0.3,0.34-0.63,0.65-0.97,0.91
				l-0.08,0.06c-0.14,0.12-0.3,0.24-0.43,0.32c-0.36,0.26-0.77,0.49-1.18,0.69c-0.24,0.12-0.41,0.18-0.61,0.26l-0.14,0.06h-0.02
				c-0.14,0.06-0.3,0.1-0.43,0.14c-0.14,0.06-0.34,0.1-0.51,0.14c-0.24,0.06-0.49,0.1-0.75,0.12
				C436.46,580.43,436.17,580.43,435.89,580.43z M433.09,578.73c0.08,0.04,0.12,0.06,0.18,0.08c0.53,0.22,1.05,0.37,1.56,0.45
				c0.18,0.04,0.36,0.06,0.49,0.06l0.1,0.55l0.04-0.53c0.16,0.02,0.3,0.02,0.43,0.02c0.24,0,0.47,0,0.71-0.04
				c0.2-0.02,0.43-0.06,0.65-0.12c0.16-0.02,0.3-0.06,0.43-0.12c0.2-0.06,0.34-0.1,0.49-0.16l0.14-0.06
				c0.12-0.04,0.22-0.1,0.34-0.14c0.43-0.2,0.77-0.39,1.1-0.63c0.06-0.02,0.1-0.06,0.14-0.08l0,0l0.22-0.18
				c0.32-0.24,0.63-0.51,0.89-0.83c0.37-0.43,0.75-0.99,1.14-1.56c1.66-2.39,4.1-5.92,9.94-9.51c1.26-0.79,2.37-1.66,3.29-2.58l0,0
				l0.16-0.18c0.14-0.14,0.3-0.32,0.43-0.47c0.43-0.45,0.79-0.93,1.14-1.46c0.16-0.24,0.3-0.45,0.43-0.65
				c0.28-0.45,0.51-0.89,0.71-1.3c0.12-0.22,0.2-0.41,0.28-0.63c0.28-0.63,0.47-1.26,0.63-1.91c0.08-0.3,0.12-0.45,0.14-0.61
				c0.06-0.22,0.1-0.41,0.12-0.59c0.04-0.22,0.06-0.41,0.1-0.61c0.04-0.22,0.04-0.39,0.06-0.55c0.02-0.24,0.04-0.36,0.04-0.49v-0.02
				c0.14-2.23-0.24-3.77-0.26-3.83c-0.18-1.01-1.91-9.53-10.93-9.77c-0.67-0.02-1.32,0-1.95,0.08c-5.05,0.49-9.86,3.16-13.16,7.32
				c-7.63,9.59-7.56,23.44-2.39,29.43c0.14,0.16,0.28,0.32,0.43,0.45c0.34,0.32,0.63,0.55,0.95,0.73l0.43,0.28
				c0.04,0.02,0.08,0.04,0.12,0.06h0.12L433.09,578.73z"/>
		</g>
		<g>
			<path class="st1" d="M443.23,539.26c-4.34,1.12-8.33,3.71-11.25,7.36c-7.48,9.39-7.89,22.71-3.57,29.85
				c-0.36,0.14-0.77,0.26-1.2,0.34c-3.27,0.67-11.25,1.4-14.74-6.53c-1.1-2.49-1.66-5.62-1.64-9.37
				c0.1-12.63,4.93-27.84,13.95-32.47c1.64-0.87,3.39-1.34,5.19-1.42c4.46-0.2,7.93,1.46,10.36,4.91l0.14,0.16
				c0.57,0.89,1.09,1.82,1.48,2.8C442.66,536.55,443.03,538.11,443.23,539.26z"/>
			<path class="st2" d="M423.48,577.73c-3.87,0-8.88-1.3-11.5-7.26c-1.12-2.53-1.7-5.76-1.68-9.59c0.1-12.78,5.03-28.21,14.24-32.95
				c1.7-0.89,3.53-1.4,5.43-1.48c4.68-0.22,8.31,1.54,10.81,5.15l0.12,0.14c0.63,0.97,1.14,1.93,1.56,2.92
				c0.59,1.4,1.03,2.92,1.3,4.5l0.08,0.49l-0.47,0.12c-4.26,1.1-8.17,3.65-10.95,7.18c-7.46,9.37-7.63,22.47-3.53,29.24l0.34,0.55
				l-0.61,0.22c-0.43,0.16-0.85,0.28-1.28,0.36C426.36,577.53,425,577.73,423.48,577.73z M430.68,527.52c-0.22,0-0.43,0-0.67,0.02
				c-1.74,0.08-3.39,0.53-4.97,1.36c-8.84,4.54-13.57,19.55-13.67,32c-0.02,3.67,0.51,6.75,1.58,9.15
				c3.33,7.58,11.01,6.89,14.15,6.23c0.18-0.04,0.36-0.08,0.51-0.12c-3.95-7.22-3.59-20.4,3.95-29.87
				c2.84-3.57,6.75-6.19,11.05-7.42c-0.26-1.32-0.65-2.6-1.14-3.79c-0.39-0.93-0.87-1.83-1.44-2.7l-0.1-0.12
				C437.73,529.1,434.63,527.52,430.68,527.52z"/>
		</g>
		<g>
			<path class="st1" d="M409.67,560.88c-0.02,3.69,0.51,6.81,1.56,9.35c-3.22,1.78-9.73,2.49-15.84-2.49
				c-1.87-1.52-3.04-4.42-3.39-8.35c-0.91-10.18,3.97-26.38,12.69-34.29c2.23-2.03,4.52-3.22,6.79-3.57
				c5.7-0.91,10.2,3.67,12.21,6.17C414.63,532.92,409.79,548.19,409.67,560.88z"/>
			<path class="st2" d="M405.59,572.1c-3.31,0-7.08-1.1-10.55-3.93c-1.97-1.62-3.22-4.62-3.59-8.72
				c-0.93-10.3,4.02-26.73,12.86-34.74c2.31-2.09,4.68-3.33,7.06-3.71c5.88-0.95,10.5,3.59,12.7,6.37l0.39,0.49l-0.53,0.32
				c-8.86,5.11-13.61,20.32-13.71,32.69l0,0c-0.02,3.57,0.49,6.65,1.52,9.15l0.18,0.43l-0.41,0.24
				C409.93,571.57,407.88,572.1,405.59,572.1z M412.95,521.97c-0.45,0-0.93,0.04-1.4,0.12c-2.17,0.34-4.36,1.48-6.51,3.43
				c-8.6,7.79-13.42,23.79-12.51,33.85c0.36,3.81,1.46,6.55,3.2,7.97c5.96,4.85,12.07,3.95,14.84,2.64
				c-0.95-2.54-1.42-5.6-1.42-9.09l0,0c0.1-12.43,4.85-27.7,13.71-33.28C420.88,525.23,417.35,521.97,412.95,521.97z"/>
		</g>
		<g>
			<path class="st1" d="M409.93,520.71c-2.03,0.59-4.04,1.76-6.04,3.55c-8.78,7.95-13.75,23.99-13.12,34.48
				c-2.41-0.47-4.42-1.72-6.02-3.63l-0.81-1.09c-0.22-0.32-0.41-0.65-0.61-0.99l-0.69-1.32c-1.12-2.45-1.85-5.46-2.17-9.04
				l-0.1-1.28c-0.04-0.53-0.06-1.09-0.08-1.66l-0.02-1.22c-0.02-2.31,0.1-4.79,0.36-7.44c1.1-11.15,6.12-18.31,10.12-22.37
				c2.54-2.58,5.6-4.22,8.82-4.73c6.71-1.09,10.04,2.78,11.68,6.31C409.85,514.36,409.79,518.38,409.93,520.71z"/>
		</g>
		<g>
			<path d="M447.41,587.1c-0.63,1.85-1.28,3.73-1.95,5.58c-1.6,4.56-3.12,8.86-4.04,12.45l-0.02,0.04l2.53,0.81
				c0.91-3.83,2.54-8.48,4.28-13.4c0.45-1.3,0.91-2.6,1.36-3.93l0.06-0.14C448.85,588.06,448.1,587.57,447.41,587.1z M447.41,587.1
				c-0.63,1.85-1.28,3.73-1.95,5.58c-1.6,4.56-3.12,8.86-4.04,12.45l-0.02,0.04l2.53,0.81c0.91-3.83,2.54-8.48,4.28-13.4
				c0.45-1.3,0.91-2.6,1.36-3.93l0.06-0.14C448.85,588.06,448.1,587.57,447.41,587.1z"/>
		</g>
		<g>
			<path class="st4" d="M481.37,619.06l-9.21,4.73l-11.05,0.57l-38.73-16.02c1.76-2.49,3.55-4.72,5.21-6.73l12.51,4.06l0.47,0.16
				l0.1,0.02l0.02,0.02l0.1,0.02l2.98,0.97l0.53,0.16l0.04,0.02l0.02,0.02l0.04,0.02L481.37,619.06z"/>
		</g>
		<g>
			<path class="st1" d="M380.81,798.94l0.45-1.64c1.3-4.6,7.38-19.73,12.25-31.62l0.2-0.49l25.69-7.14l31.29,29.3L380.81,798.94z
				 M395.31,767c-5.9,14.42-9.88,24.62-11.46,29.26l62.18-10.32l-27.22-25.51L395.31,767z"/>
		</g>
		<g>
			<path class="st5" d="M535.64,488.95v-0.18l-0.1-0.14c-7.34-11.36-20.69-21.42-20.83-21.52l-0.77-0.57l-0.16,0.93
				c-0.08,0.45-5.66,34.41-12.01,57.67v0.02c-1.26,4.64-2.56,8.82-3.85,12.27c-1.03,2.72-3.49,4.64-6.39,4.95
				c-1.68,0.18-3.59,0.51-5.37,1.16c-0.47-2.13-1.14-4.08-2.03-5.78c-5.56-10.53-38.37-42.67-58-39.61
				c-6.9,1.07-11.84,4.75-14.34,10.69c-1.76-3.18-5.39-7.12-12.41-5.98c-3.45,0.55-6.71,2.31-9.45,5.07
				c-4.12,4.18-9.29,11.58-10.46,23.06c-0.28,2.86-0.39,5.54-0.36,8.03c-7.79,3.75-14.93,16.71-20.79,27.32
				c-1.2,2.19-2.37,4.32-3.47,6.23c-0.73,1.26-1.42,2.54-2.09,3.85l-34.66-11.25l-0.37-0.12l-0.16,0.37
				c-0.22,0.47-21.07,48-37.27,74.89c-16.24,26.95-42.1,87.1-42.36,87.71l-0.16,0.37l143.74,70.13l0.12,0.06l67.73-11.23l0.3-0.06
				l33.28-168.26l0.06-0.37l-37.98-12.31l0.02-0.1c0.89-3.75,2.51-8.38,4.24-13.3c0.43-1.26,0.89-2.53,1.34-3.81
				c8.23,4.89,18.7,8.54,20.73,9.11c2.09,0.61,4.12,0.95,6.1,1.01c2.86,0.08,5.54-0.45,7.97-1.54c10.5-4.79,18.82-12.63,25.39-21.98
				C534.38,542.31,535.64,489.64,535.64,488.95z M380.61,531.09c1.1-11.15,6.12-18.31,10.12-22.37c2.54-2.58,5.6-4.22,8.82-4.73
				c6.71-1.09,10.04,2.78,11.68,6.31c-1.38,4.06-1.44,8.09-1.3,10.42c-2.03,0.59-4.04,1.76-6.04,3.55
				c-8.78,7.95-13.75,23.99-13.12,34.48c-2.41-0.47-4.42-1.72-6.02-3.63l-0.81-1.09c-0.22-0.32-0.41-0.65-0.61-0.99l-0.69-1.32
				c-1.12-2.45-1.85-5.46-2.17-9.04l-0.1-1.28c-0.04-0.53-0.06-1.09-0.08-1.66l-0.02-1.22C380.24,536.2,380.36,533.73,380.61,531.09
				z M410.11,628.11c1.54,0.04,2.84-1.14,2.94-2.68v-0.02c0.32-0.85,0.65-1.66,0.99-2.47c0.43,0.71,0.67,1.54,0.65,2.43
				c-0.06,2.49-2.13,4.46-4.62,4.38c-2.47-0.06-4.44-2.13-4.38-4.62c0.06-2.03,1.46-3.71,3.31-4.22c-0.36,0.79-0.69,1.64-1.05,2.54
				c-0.37,0.47-0.61,1.07-0.63,1.72C407.29,626.77,408.55,628.07,410.11,628.11z M413.7,620.85c-0.16,0.37-0.34,0.73-0.47,1.1
				c-0.24,0.53-0.47,1.09-0.69,1.66c-0.22,0.49-0.41,1.01-0.59,1.52l-0.04,0.08c0.02,0.04,0,0.08,0,0.1
				c-0.02,0.95-0.81,1.68-1.76,1.66c-0.91-0.02-1.64-0.75-1.64-1.66c0-0.02,0-0.02,0-0.02c-0.02-0.02-0.02-0.04,0-0.08
				c0.02-0.43,0.18-0.83,0.47-1.1c0.22-0.57,0.43-1.12,0.65-1.64c0.24-0.59,0.47-1.16,0.71-1.7c0.18-0.37,0.34-0.75,0.51-1.1
				c1.93-4.14,3.99-7.12,7.79-11.94c0.18-0.24,0.37-0.47,0.57-0.71c1.26-1.58,2.72-3.37,4.44-5.46c0.26-0.32,0.51-0.63,0.79-0.99
				c0.2-0.24,0.39-0.47,0.59-0.73c1.44-1.78,3.04-3.75,4.81-5.94c3.06-3.79,5.11-8.62,6.47-12.86c0.61-0.04,1.2-0.14,1.78-0.3
				c0.1,0.1,0.2,0.18,0.3,0.26c-1.24,3.75-2.96,8.27-4.91,11.32c-1.12,1.74-2.84,3.79-4.83,6.17c-0.53,0.63-1.09,1.3-1.66,1.97
				c-0.2,0.24-0.39,0.47-0.59,0.73c-1.64,1.99-3.39,4.2-5.13,6.65c-0.18,0.24-0.34,0.47-0.51,0.73
				C418.26,612.13,415.81,616.18,413.7,620.85z M373.1,583.01c-0.14-5.19,5.98-20.3,9.65-28.67c0.22,0.34,0.45,0.67,0.71,0.99v0.02
				c-2.01,5.46-7.99,22.19-8.46,28.29c-0.04,0.34-0.06,0.65-0.04,0.91l1.22,0.39l47.07,15.27c-0.18,0.22-0.36,0.41-0.51,0.63
				c-1.8,2.19-3.31,4.06-4.66,5.72l-62.4-25.8c0.32-0.69,0.67-1.38,1.03-2.13l15.23,4.95l1.16,0.37h0.02l0.06-0.02
				C373.14,583.66,373.1,583.37,373.1,583.01z M384.3,556.38c1.78,1.91,3.97,3.12,6.59,3.57c0.43,4.02,1.74,7.04,3.77,8.7
				c3.55,2.9,7.24,3.99,10.46,4.06c2.66,0.08,4.99-0.55,6.61-1.42c2.19,4.46,6.14,6.92,11.23,7.06c1.42,0.04,2.92-0.1,4.5-0.43
				c0.61-0.14,1.14-0.32,1.62-0.49c0.2,0.26,0.37,0.51,0.57,0.75c1.38,1.6,3.31,2.6,5.43,2.8c-1.32,4.08-3.29,8.66-6.14,12.19
				c-1.89,2.35-3.59,4.42-5.11,6.27l-47.74-15.49C376.27,579.74,380.69,566.24,384.3,556.38z M429.52,599.25
				c2.01-2.43,3.77-4.5,4.91-6.29c1.95-3.06,3.65-7.38,4.89-11.09c2.27,1.93,4.62,3.49,7.04,4.64l-0.02,0.06
				c-0.65,1.89-1.32,3.83-1.99,5.72c-1.6,4.56-3.12,8.88-4.08,12.53l-12.13-3.93C428.63,600.31,429.09,599.78,429.52,599.25z
				 M438.91,579.24c-0.16,0.08-0.34,0.14-0.51,0.22c0,0,0,0-0.02,0c-0.18,0.06-0.34,0.12-0.51,0.16c-0.16,0.06-0.34,0.1-0.49,0.12
				c-0.24,0.06-0.47,0.1-0.71,0.12c-0.26,0.02-0.53,0.04-0.79,0.04c-0.16,0-0.3,0-0.43-0.02c-0.04,0-0.1,0-0.16-0.02
				c-0.18,0-0.37-0.04-0.55-0.08c-0.57-0.08-1.12-0.26-1.66-0.47c-0.1-0.04-0.2-0.08-0.3-0.14c-0.02,0-0.02-0.02-0.02-0.02
				c-0.18-0.08-0.36-0.18-0.51-0.28c-0.02,0-0.02,0-0.02-0.02c-0.06-0.02-0.14-0.06-0.2-0.12c-0.37-0.22-0.71-0.49-1.03-0.79
				c-0.18-0.16-0.34-0.32-0.49-0.49c-5.31-6.16-5.41-20.34,2.37-30.12c3.39-4.28,8.33-7,13.53-7.52c0.71-0.08,1.38-0.1,2.03-0.08
				c9.65,0.26,11.36,9.71,11.44,10.16c0.04,0.16,0.41,1.74,0.28,3.99c0,0.16-0.02,0.3-0.04,0.45v0.06
				c-0.02,0.18-0.04,0.37-0.06,0.55c-0.02,0.22-0.06,0.43-0.1,0.65c-0.02,0.22-0.08,0.41-0.12,0.63c-0.04,0.22-0.1,0.41-0.14,0.63
				c-0.16,0.65-0.37,1.32-0.65,1.97c-0.08,0.24-0.18,0.45-0.3,0.67c-0.22,0.45-0.45,0.91-0.73,1.36c-0.14,0.22-0.28,0.45-0.43,0.67
				c-0.34,0.51-0.73,1.01-1.18,1.5c-0.14,0.18-0.3,0.34-0.45,0.49v0.02c-0.95,1.01-2.13,1.95-3.55,2.84
				c-5.78,3.57-8.19,7.06-9.77,9.37c-0.41,0.61-0.79,1.14-1.18,1.6c-0.3,0.34-0.63,0.65-0.97,0.91v0.02
				c-0.12,0.1-0.24,0.2-0.36,0.26c-0.36,0.26-0.73,0.47-1.12,0.65C438.95,579.23,438.93,579.23,438.91,579.24z M431.99,546.61
				c-7.48,9.39-7.89,22.71-3.57,29.85c-0.36,0.14-0.77,0.26-1.2,0.34c-3.27,0.67-11.25,1.4-14.74-6.53
				c-1.1-2.49-1.66-5.62-1.64-9.37c0.1-12.63,4.93-27.84,13.95-32.47c1.64-0.87,3.39-1.34,5.19-1.42c4.46-0.2,7.93,1.46,10.36,4.91
				l0.14,0.16c0.57,0.89,1.09,1.82,1.48,2.8c0.69,1.68,1.07,3.24,1.26,4.38C438.89,540.38,434.89,542.95,431.99,546.61z
				 M409.67,560.88c-0.02,3.69,0.51,6.81,1.56,9.35c-3.22,1.78-9.73,2.49-15.84-2.49c-1.87-1.52-3.04-4.42-3.39-8.35
				c-0.91-10.18,3.97-26.38,12.69-34.29c2.23-2.03,4.52-3.22,6.79-3.57c5.7-0.91,10.2,3.67,12.21,6.17
				C414.63,532.92,409.79,548.19,409.67,560.88z M382.03,553.09c-2.7,6.1-9.88,22.92-10.1,29.55l-14.82-4.81
				c0.87-1.74,1.83-3.59,2.92-5.58c9.49-17.6,14.66-25.47,19.33-28.86C379.79,547.25,380.69,550.5,382.03,553.09z M353.47,577.57
				c0.12-0.26,0.26-0.53,0.39-0.79c0.63-1.22,1.28-2.45,1.97-3.65c1.1-1.91,2.29-4.04,3.49-6.25c5.64-10.26,12.53-22.77,19.81-26.61
				c0.02,0.61,0.06,1.18,0.1,1.76c-4.99,3.27-10.18,11.05-20.24,29.65c-1.1,2.05-2.11,3.99-3.02,5.78
				c-0.12,0.26-0.26,0.53-0.37,0.79c-0.36,0.69-0.67,1.36-0.99,2.03c-0.12,0.26-0.24,0.51-0.37,0.79
				c-2.86,6.08-4.38,10.34-5.17,13.24c-0.12,0.41-0.22,0.79-0.3,1.14c-0.18,0.69-0.3,1.26-0.37,1.76c-0.2,1.18-0.22,1.85-0.22,2.11
				v0.06c-0.02,0.93-0.81,1.68-1.74,1.66c-0.91-0.02-1.66-0.81-1.66-1.72c0-0.02,0-0.02,0-0.02c0.06-0.16,0.16-0.45,0.3-0.89
				c0-0.02,0.02-0.02,0.02-0.02c0.14-0.45,0.32-1.07,0.55-1.78c0.18-0.53,0.37-1.12,0.59-1.76c0.12-0.37,0.26-0.75,0.39-1.16
				c1.26-3.57,3.12-8.44,5.48-13.45c0.12-0.26,0.26-0.53,0.37-0.79C352.84,578.81,353.15,578.18,353.47,577.57z M346.42,602.19
				c1.58,0.04,2.88-1.2,2.94-2.78v-0.08c0-0.02,0-0.08,0-0.22c0.02-0.37,0.08-1.28,0.43-2.86c0.77,0.83,1.24,1.95,1.22,3.2
				c-0.06,2.47-2.13,4.44-4.62,4.38c-2.49-0.06-4.44-2.13-4.38-4.62c0.06-1.89,1.26-3.49,2.94-4.1c-0.39,1.14-0.69,2.07-0.91,2.74
				c-0.24,0.41-0.39,0.89-0.41,1.4C343.62,600.83,344.85,602.15,346.42,602.19z M352.34,577.19c-0.32,0.59-0.59,1.18-0.87,1.8
				l-23.12-9.57L352.34,577.19z M381.42,797.52l-142.5-69.54c2.25-5.19,26.59-61.43,42.12-87.22
				c15.45-25.67,35.12-70.02,37.15-74.61l32.91,13.61c-2.51,5.29-4.42,10.38-5.68,14.01c-2.54,0.49-4.48,2.72-4.56,5.41
				c-0.08,3.12,2.39,5.72,5.5,5.8c3.12,0.08,5.74-2.39,5.82-5.5c0.04-1.82-0.75-3.45-2.07-4.5c0.77-2.82,2.25-7.14,5.23-13.47
				l62.2,25.75c-3.83,4.83-5.92,7.93-7.95,12.39c-2.76,0.3-4.97,2.6-5.05,5.46c-0.08,3.12,2.39,5.72,5.5,5.82
				c3.12,0.08,5.74-2.39,5.82-5.5c0.04-1.4-0.43-2.68-1.26-3.69c2.15-4.83,4.7-9.04,7.26-12.67l38.55,15.96
				c-2.8,4.97-29.18,52.18-40.56,78.56C407.84,731.35,383.91,788.52,381.42,797.52z M461.28,625.21l10.3-0.53
				c-3.39,7.99-37.64,89.01-52.73,133.74l-23.93,6.65c8.36-20.44,18.94-45.47,25.71-61.16C432.2,677.12,459.27,628.8,461.28,625.21z
				 M382.31,797.6c1.12-3.93,6.02-16.37,12.21-31.51l24.6-6.85l29.26,27.4L382.31,797.6z M449.03,786.08l-29.32-27.46
				c15.6-46.2,51.61-131.05,52.93-134.15l9.27-4.72L449.03,786.08z M481.37,619.06l-9.21,4.73l-11.05,0.57l-38.73-16.02
				c1.76-2.49,3.55-4.72,5.21-6.73l12.51,4.06l0.47,0.16l0.1,0.02l0.02,0.02l0.1,0.02l2.98,0.97l0.53,0.16l0.04,0.02l0.02,0.02
				l0.04,0.02L481.37,619.06z M449.56,588.66c-0.45,1.3-0.91,2.62-1.36,3.93c-1.74,4.93-3.35,9.59-4.28,13.4l-2.53-0.81l0.02-0.04
				c0.93-3.59,2.45-7.89,4.04-12.45c0.67-1.85,1.32-3.73,1.95-5.58c0.69,0.47,1.44,0.97,2.21,1.42L449.56,588.66z M447.55,585.77
				l-0.12-0.06l-0.06-0.04c-2.64-1.2-5.19-2.86-7.63-5.01c-0.14-0.1-0.26-0.24-0.39-0.36c0.2-0.08,0.41-0.18,0.59-0.3
				c0.02,0,0.02-0.02,0.04-0.02c0.12-0.06,0.22-0.12,0.34-0.2c0.24-0.14,0.47-0.3,0.69-0.45c0.24-0.18,0.45-0.36,0.67-0.55
				l0.04-0.04c0.24-0.22,0.45-0.43,0.67-0.67c0.37-0.43,0.77-1.01,1.22-1.66c0.3-0.41,0.61-0.89,0.97-1.36
				c0.12-0.16,0.24-0.32,0.36-0.47c0.32-0.39,0.63-0.83,1.03-1.26c0.14-0.18,0.3-0.34,0.43-0.51c0.22-0.26,0.47-0.51,0.73-0.79
				c0.08-0.1,0.18-0.18,0.28-0.28c0.18-0.2,0.37-0.37,0.57-0.53c0.1-0.1,0.2-0.2,0.3-0.28c0.1-0.1,0.2-0.2,0.32-0.28
				c0.22-0.2,0.43-0.37,0.65-0.55c0.16-0.14,0.34-0.28,0.51-0.43c0.36-0.3,0.73-0.57,1.12-0.85c0.2-0.14,0.39-0.3,0.61-0.43v-0.02
				c0.49-0.32,0.99-0.65,1.52-0.99c10.67-6.59,8.05-17.64,8.03-17.72c-0.02-0.12-2.17-12.23-14.72-11.01
				c-0.65,0.06-1.3,0.16-1.95,0.3c-0.22-1.2-0.61-2.8-1.32-4.54c-0.45-1.12-1.03-2.19-1.72-3.2l-0.18-0.24h-0.02
				c-2.66-3.65-6.41-5.41-11.19-5.17c-1.81,0.08-3.57,0.55-5.25,1.34c-2.07-2.64-7-7.77-13.42-6.77l-0.22,0.02
				c-0.12-2.29-0.04-6.16,1.32-9.98l0.02-0.1c2.23-6.27,6.89-10,13.89-11.09c18.39-2.84,51.06,28.19,56.8,39.02
				c4.24,8.03,3.43,22.12-1.89,32.75c-3.31,6.63-9.77,14.91-21.68,16.79C455.34,588.14,451.34,587.43,447.55,585.77z M534.38,491.28
				c0,0.18-0.02,0.37-0.02,0.61c-0.02,0.3-0.04,0.61-0.04,0.95v0.1c-0.02,0.24-0.04,0.47-0.06,0.71c-0.02,0.32-0.04,0.63-0.06,0.97
				v0.04c-0.04,0.36-0.06,0.71-0.08,1.1c-0.04,0.49-0.08,0.99-0.12,1.52c0,0.1-0.02,0.18-0.02,0.28c-0.06,0.55-0.1,1.14-0.16,1.72
				c0,0.08-0.02,0.18-0.02,0.26c-0.04,0.3-0.06,0.61-0.1,0.93c0,0.08-0.02,0.14-0.02,0.22c-0.04,0.32-0.06,0.67-0.1,1.03
				c-0.06,0.49-0.1,0.99-0.18,1.52c-0.06,0.61-0.14,1.22-0.22,1.85c-0.1,0.71-0.18,1.46-0.28,2.23c-0.02,0.12-0.02,0.24-0.04,0.36
				c-0.04,0.36-0.08,0.69-0.14,1.03c-0.06,0.41-0.12,0.83-0.18,1.24c-0.08,0.55-0.18,1.12-0.24,1.7c-0.65,4.34-1.48,9.09-2.56,14.11
				c-0.1,0.49-0.22,1.01-0.34,1.5c-0.06,0.22-0.1,0.45-0.16,0.67c-0.16,0.71-0.32,1.4-0.49,2.11c-0.18,0.73-0.36,1.46-0.53,2.19
				c-0.02,0.02-0.02,0.02-0.02,0.04c-0.14,0.51-0.26,1.05-0.39,1.56c-0.08,0.3-0.16,0.57-0.24,0.85c-0.1,0.43-0.24,0.87-0.36,1.3
				c-0.22,0.79-0.43,1.58-0.65,2.37c-0.2,0.67-0.39,1.32-0.59,1.99c-0.22,0.73-0.45,1.46-0.67,2.19c-0.18,0.57-0.37,1.14-0.55,1.74
				c-0.75,2.31-1.56,4.62-2.45,6.9c-0.2,0.53-0.41,1.07-0.61,1.62c-0.08,0.18-0.16,0.37-0.24,0.57c-0.26,0.67-0.53,1.34-0.83,1.99
				c-0.39,0.97-0.83,1.95-1.26,2.92c-0.43,0.97-0.89,1.93-1.34,2.88c-0.32,0.63-0.63,1.24-0.93,1.87c-0.57,1.1-1.14,2.19-1.72,3.26
				c-0.3,0.57-0.63,1.12-0.95,1.7c-0.24,0.39-0.45,0.77-0.69,1.16c-0.24,0.39-0.45,0.77-0.69,1.14c-0.43,0.75-0.91,1.48-1.36,2.19
				c-0.02,0.04-0.04,0.06-0.06,0.1c-0.02,0.02-0.04,0.06-0.06,0.1c-0.02,0.04-0.04,0.08-0.08,0.12c-0.04,0.06-0.1,0.14-0.14,0.2
				c-0.26,0.39-0.51,0.77-0.77,1.14c-0.41,0.61-0.83,1.2-1.26,1.8c-0.24,0.34-0.47,0.67-0.71,0.99c-0.2,0.26-0.37,0.49-0.57,0.75
				c-0.08,0.1-0.16,0.2-0.24,0.32c-0.36,0.47-0.71,0.93-1.09,1.38c-0.49,0.61-1.01,1.22-1.52,1.82c-0.45,0.53-0.93,1.05-1.38,1.58
				c-0.49,0.53-0.99,1.05-1.48,1.56c-0.37,0.41-0.77,0.81-1.18,1.18c-0.12,0.14-0.26,0.26-0.39,0.39c-0.02,0.02-0.02,0.02-0.04,0.02
				c-0.36,0.36-0.71,0.69-1.09,1.03c-0.18,0.18-0.37,0.36-0.57,0.53c-0.04,0.04-0.08,0.08-0.14,0.12c-0.3,0.28-0.61,0.53-0.91,0.79
				c-0.2,0.18-0.39,0.36-0.59,0.51c-0.36,0.3-0.71,0.59-1.09,0.87c-0.02,0.02-0.02,0.02-0.04,0.04c-0.28,0.24-0.57,0.45-0.87,0.67
				c-0.02,0.02-0.04,0.04-0.08,0.06c-0.16,0.14-0.36,0.28-0.53,0.39c-0.04,0.02-0.06,0.04-0.1,0.06c-0.34,0.26-0.67,0.51-1.03,0.75
				c-0.04,0.02-0.08,0.06-0.12,0.08c-0.26,0.2-0.51,0.37-0.79,0.55c-0.32,0.22-0.63,0.43-0.95,0.63c-0.32,0.22-0.63,0.43-0.97,0.61
				c-0.43,0.28-0.89,0.55-1.34,0.81c-0.34,0.2-0.65,0.37-0.99,0.57c-0.02,0.02-0.04,0.02-0.08,0.04c-0.28,0.16-0.53,0.3-0.81,0.43
				c-0.26,0.14-0.53,0.28-0.81,0.41c-0.65,0.34-1.3,0.65-1.97,0.97c-3.81,1.74-8.38,1.91-13.24,0.49
				c-1.97-0.59-12.15-4.1-20.22-8.86c1.8,0.43,3.61,0.69,5.48,0.73c0.89,0.02,1.8,0.02,2.68-0.06
				c12.45-1.97,19.16-10.55,22.61-17.44c4.16-8.33,5.62-18.72,4.16-26.89c4.3-1.62,9.75-1.32,9.79-1.32l0.37,0.02l0.18-0.34
				c1.24-2.39,2.51-5.64,3.77-9.49c0.12-0.37,0.24-0.77,0.37-1.16c0.12-0.39,0.26-0.79,0.37-1.2c0.24-0.81,0.49-1.62,0.73-2.47
				c0.12-0.39,0.24-0.79,0.36-1.2v-0.02c0.02-0.04,0.02-0.06,0.02-0.1c0.24-0.87,0.49-1.76,0.73-2.64c0.24-0.91,0.49-1.82,0.73-2.74
				c0.12-0.45,0.24-0.93,0.36-1.4c0.26-0.99,0.49-1.95,0.75-2.96c0.22-0.87,0.41-1.74,0.63-2.6c0.14-0.53,0.26-1.09,0.37-1.62
				c0.24-0.99,0.45-1.95,0.69-2.94c0.24-1.05,0.47-2.09,0.69-3.16c0.24-1.07,0.45-2.11,0.69-3.16c0.18-0.85,0.37-1.7,0.55-2.54
				c0.22-0.99,0.41-1.95,0.61-2.92c0.59-2.9,1.16-5.72,1.7-8.42c0.16-0.81,0.32-1.6,0.45-2.37c0.1-0.55,0.2-1.1,0.32-1.66
				c0.12-0.65,0.24-1.3,0.37-1.93c0.26-1.4,0.49-2.74,0.73-4c0.06-0.37,0.14-0.73,0.2-1.1c0.06-0.36,0.12-0.71,0.2-1.05
				c0.1-0.51,0.18-0.99,0.26-1.46c0.02-0.02,0.02-0.04,0.02-0.04c0.14-0.77,0.26-1.46,0.37-2.15c0.14-0.79,0.26-1.52,0.37-2.19
				c0.02-0.18,0.06-0.34,0.08-0.49c0.08-0.47,0.16-0.91,0.22-1.32c0.02-0.16,0.06-0.32,0.08-0.47c0.02-0.06,0.02-0.12,0.02-0.16
				c0.04-0.22,0.06-0.41,0.1-0.59c0.04-0.24,0.08-0.45,0.12-0.65c2.92,2.29,13.47,10.93,19.71,20.5
				C534.47,489.44,534.45,490.17,534.38,491.28z"/>
		</g>
		<g>
			<path class="st0" d="M448.36,786.65l-66.05,10.95c1.12-3.93,6.02-16.37,12.21-31.51l24.6-6.85L448.36,786.65z"/>
		</g>
		<g>
			<path class="st1" d="M481.21,571.06c-3.31,6.63-9.77,14.91-21.68,16.79c-4.16,0.3-8.17-0.39-11.96-2.07l-0.12-0.06l-0.06-0.04
				c-2.64-1.2-5.19-2.86-7.63-5.01c-0.14-0.1-0.26-0.24-0.39-0.36c0.2-0.08,0.41-0.18,0.59-0.3c0.02,0,0.02-0.02,0.04-0.02
				c0.12-0.06,0.22-0.12,0.34-0.2c0.24-0.14,0.47-0.3,0.69-0.45c0.24-0.18,0.45-0.36,0.67-0.55l0.04-0.04
				c0.24-0.22,0.45-0.43,0.67-0.67c0.37-0.43,0.77-1.01,1.22-1.66c0.3-0.41,0.61-0.89,0.97-1.36c0.12-0.16,0.24-0.32,0.36-0.47
				c0.32-0.39,0.63-0.83,1.03-1.26c0.14-0.18,0.3-0.34,0.43-0.51c0.22-0.26,0.47-0.51,0.73-0.79c0.08-0.1,0.18-0.18,0.28-0.28
				c0.18-0.2,0.37-0.37,0.57-0.53c0.1-0.1,0.2-0.2,0.3-0.28c0.1-0.1,0.2-0.2,0.32-0.28c0.22-0.2,0.43-0.37,0.65-0.55
				c0.16-0.14,0.34-0.28,0.51-0.43c0.36-0.3,0.73-0.57,1.12-0.85c0.2-0.14,0.39-0.3,0.61-0.43v-0.02c0.49-0.32,0.99-0.65,1.52-0.99
				c10.67-6.59,8.05-17.64,8.03-17.72c-0.02-0.12-2.17-12.23-14.72-11.01c-0.65,0.06-1.3,0.16-1.95,0.3
				c-0.22-1.2-0.61-2.8-1.32-4.54c-0.45-1.12-1.03-2.19-1.72-3.2l-0.18-0.24h-0.02c-2.66-3.65-6.41-5.41-11.19-5.17
				c-1.81,0.08-3.57,0.55-5.25,1.34c-2.07-2.64-7-7.77-13.42-6.77l-0.22,0.02c-0.12-2.29-0.04-6.16,1.32-9.98l0.02-0.1
				c2.23-6.27,6.89-10,13.89-11.09c18.39-2.84,51.06,28.19,56.8,39.02C487.34,546.32,486.53,560.4,481.21,571.06z"/>
		</g>
		<g>
			<path class="st0" d="M481.9,619.75l-32.89,166.33l-29.32-27.46c15.6-46.2,51.61-131.05,52.93-134.15L481.9,619.75z"/>
		</g>
		<g>
			<path class="st0" d="M471.6,624.68c-3.39,7.99-37.64,89.01-52.73,133.74l-23.95,6.65c8.36-20.44,18.94-45.47,25.71-61.16
				c11.58-26.79,38.65-75.11,40.66-78.7L471.6,624.68z"/>
		</g>
		<g>
			<path class="st0" d="M460.39,625.01c-2.8,4.97-29.18,52.18-40.56,78.56c-12.01,27.8-35.93,84.97-38.41,93.97L238.93,728
				c2.25-5.19,26.59-61.43,42.12-87.22c15.45-25.67,35.12-70.02,37.15-74.61l32.91,13.61c-2.51,5.29-4.42,10.38-5.68,14.01
				c-2.54,0.49-4.48,2.72-4.56,5.41c-0.08,3.12,2.39,5.72,5.5,5.8c3.12,0.08,5.74-2.39,5.82-5.5c0.04-1.82-0.75-3.45-2.07-4.5
				c0.77-2.82,2.25-7.14,5.23-13.47l62.2,25.75c-3.83,4.83-5.92,7.93-7.95,12.39c-2.76,0.3-4.97,2.6-5.05,5.46
				c-0.08,3.12,2.39,5.72,5.5,5.82c3.12,0.08,5.74-2.39,5.82-5.5c0.04-1.4-0.43-2.68-1.26-3.69c2.15-4.83,4.7-9.04,7.26-12.67
				L460.39,625.01z"/>
		</g>
		<g>
			<path class="st4" d="M352.34,577.19c-0.32,0.59-0.59,1.18-0.87,1.8l-23.12-9.57L352.34,577.19z"/>
		</g>
		<g>
			<path class="st4" d="M423.27,600.2c-0.18,0.22-0.36,0.41-0.51,0.63c-1.8,2.19-3.31,4.06-4.66,5.72l-62.4-25.8
				c0.32-0.69,0.67-1.38,1.03-2.13l15.23,4.95l1.16,0.37h0.02l1.81,0.59l1.22,0.39L423.27,600.2z"/>
		</g>
		<g>
			<path class="st1" d="M379.25,542.04c-4.99,3.27-10.18,11.05-20.24,29.65c-1.1,2.05-2.11,3.99-3.02,5.78
				c-0.12,0.26-0.26,0.53-0.37,0.79c-0.36,0.69-0.67,1.36-0.99,2.03c-0.12,0.26-0.24,0.51-0.37,0.79
				c-2.86,6.08-4.38,10.34-5.17,13.24c-0.12,0.41-0.22,0.79-0.3,1.14c-0.18,0.69-0.3,1.26-0.37,1.76c-0.2,1.18-0.22,1.85-0.22,2.11
				v0.06c-0.02,0.93-0.81,1.68-1.74,1.66c-0.91-0.02-1.66-0.81-1.66-1.72c0-0.02,0-0.02,0-0.02c0.06-0.16,0.16-0.45,0.3-0.89
				c0-0.02,0.02-0.02,0.02-0.02c0.14-0.45,0.32-1.07,0.55-1.78c0.18-0.53,0.37-1.12,0.59-1.76c0.12-0.37,0.26-0.75,0.39-1.16
				c1.26-3.57,3.12-8.44,5.48-13.45c0.12-0.26,0.26-0.53,0.37-0.79c0.3-0.61,0.61-1.24,0.93-1.85c0.12-0.26,0.26-0.53,0.39-0.79
				c0.63-1.22,1.28-2.45,1.97-3.65c1.1-1.91,2.29-4.04,3.49-6.25c5.64-10.26,12.53-22.77,19.81-26.61
				C379.17,540.87,379.21,541.47,379.25,542.04z"/>
		</g>
		<g>
			<path class="st1" d="M351.02,599.47c-0.06,2.47-2.13,4.44-4.62,4.38s-4.44-2.13-4.38-4.62c0.06-1.89,1.26-3.49,2.94-4.1
				c-0.39,1.14-0.69,2.07-0.91,2.74c-0.24,0.41-0.39,0.89-0.41,1.4c-0.04,1.56,1.2,2.88,2.78,2.94c1.58,0.04,2.88-1.2,2.94-2.78
				v-0.08c0-0.02,0-0.08,0-0.22c0.02-0.37,0.08-1.28,0.43-2.86C350.57,597.1,351.04,598.22,351.02,599.47z"/>
		</g>
		<g>
			<g>
				<path class="st1" d="M383.45,555.33L383.45,555.33c-2.01,5.46-7.99,22.19-8.46,28.29c-0.04,0.34-0.06,0.65-0.04,0.91l-1.81-0.59
					l0.06-0.02c-0.06-0.26-0.1-0.55-0.1-0.91c-0.14-5.19,5.98-20.3,9.65-28.67C382.98,554.68,383.2,555.02,383.45,555.33z"/>
			</g>
		</g>
		<g>
			<g>
				<path class="st1" d="M449.6,588.52l-0.06,0.14c-0.45,1.3-0.91,2.62-1.36,3.93c-1.74,4.93-3.35,9.59-4.28,13.4l-2.53-0.81
					l0.02-0.04c0.93-3.59,2.45-7.89,4.04-12.45c0.67-1.85,1.32-3.73,1.95-5.58C448.1,587.57,448.85,588.06,449.6,588.52z"/>
			</g>
		</g>
		<g>
			<path class="st1" d="M438.38,581.02c-1.24,3.75-2.96,8.27-4.91,11.32c-1.12,1.74-2.84,3.79-4.83,6.17
				c-0.53,0.63-1.09,1.3-1.66,1.97c-0.2,0.24-0.39,0.47-0.59,0.73c-1.64,1.99-3.39,4.2-5.13,6.65c-0.18,0.24-0.34,0.47-0.51,0.73
				c-2.47,3.53-4.93,7.6-7.04,12.25c-0.16,0.37-0.34,0.73-0.47,1.1c-0.24,0.53-0.47,1.09-0.69,1.66c-0.22,0.49-0.41,1.01-0.59,1.52
				l-0.04,0.08c0.02,0.04,0,0.08,0,0.1c-0.02,0.95-0.81,1.68-1.76,1.66c-0.91-0.02-1.64-0.75-1.64-1.66c0-0.02,0-0.02,0-0.02
				c-0.02-0.02-0.02-0.04,0-0.08c0.02-0.43,0.18-0.83,0.47-1.1c0.22-0.57,0.43-1.12,0.65-1.64c0.24-0.59,0.47-1.16,0.71-1.7
				c0.18-0.37,0.34-0.75,0.51-1.1c1.93-4.14,3.99-7.12,7.79-11.94c0.18-0.24,0.37-0.47,0.57-0.71c1.26-1.58,2.72-3.37,4.44-5.46
				c0.26-0.32,0.51-0.63,0.79-0.99c0.2-0.24,0.39-0.47,0.59-0.73c1.44-1.78,3.04-3.75,4.81-5.94c3.06-3.79,5.11-8.62,6.47-12.86
				c0.61-0.04,1.2-0.14,1.78-0.3C438.18,580.84,438.28,580.94,438.38,581.02z"/>
		</g>
	</g>
	<g>
		<path d="M633.88,652.24l-1.1,0.39c1.68,10.08,4.56,42.1-19.79,68.85c-10.97,12.07-21.44,18.19-31.09,18.19h-0.04
			c-8.54-0.02-15.96-6.02-18.07-14.6c-1.36-5.58-1.66-13.34,4.83-18.58c1.58-1.26,3.51-2.25,5.74-2.94
			c16.61-5.05,22.75-11.38,25.92-39.38l-1.2,0.41v0.02c-3.12,27.07-8.84,32.91-25.05,37.84c-1.1,0.34-2.15,0.75-3.12,1.22
			c-0.97-0.18-1.95-0.28-3-0.28c-3.12-2.15-17.99-10.48-40.68,9.67c-3.61,3.2-6.55,6.67-8.8,10.38c-2.72,1.99-4.77,4.68-6.47,7.48
			c-5.01,8.6-7.81,18.43-8.31,28.39c-0.14,4.95,0.69,9.88,2.23,14.6c-0.37,1.95-0.85,5.72,0.12,9.8c-0.37,4.4-0.12,14.93,9.53,19.91
			c8.36,4.32,24.64,8.54,41.69,8.54c7.85,0,15.86-0.89,23.34-3.1c23.69-6.98,27.01-16.37,24.72-28.25c0.32-2.98-0.41-5.62-1.09-7.6
			c0.04-0.47,0.06-0.93,0.06-1.4c0-3.39-1.1-6.85-3.33-9.77c-4.83-6.49-13.28-8.88-20.97-9.77c-1.74-0.16-3.49-0.24-5.23-0.24
			c0.55-2.07,1.58-5.31,3.26-7.52c0.73-0.97,1.91-2.68,2.64-3.77c0.41,0.02,0.85,0.06,1.26,0.06h0.04c10,0,20.75-6.25,31.96-18.56
			C638.68,695.01,635.58,662.28,633.88,652.24z M508.75,740.35c1.93-4.89,4.3-9.98,7.99-13.79c-12.17,24.17-0.51,54.79,11.26,66.15
			c-8.25-2.27-15.43-6.51-19.25-14.46C503.01,765.95,504.11,752.77,508.75,740.35z M604.53,783.87c1.1,10.2-3.33,17.93-24.32,24.11
			c-22.37,6.57-51.63,1.1-64.18-5.35c-7.14-3.69-8.84-10.52-8.98-15.7c1.66,3.83,4.5,6.85,8.54,9.04
			c8.23,4.42,23.46,7.69,39.46,7.69c12.15,0,24.76-1.91,35.06-6.65C597.92,793.22,602.75,788.82,604.53,783.87z M604.08,780.77
			c-0.63,5.74-5.52,10.85-14.48,15.19c-23.52,10.81-59.22,6.61-73.47-1.03c-4.75-2.56-7.79-6.35-9-11.3l-0.02-0.08
			c-0.67-2.72-0.63-5.33-0.43-7.26c0.32,0.83,0.65,1.66,1.01,2.45c8.4,17.48,31.96,17.7,48.77,17.74c8.19-0.3,16.57-1.2,24.46-3.53
			c6.23-1.89,13.04-4.79,17.42-9.29c2.74-2.11,4.52-4.89,5.33-7.89C604.06,777.24,604.29,778.93,604.08,780.77z M579.81,753.46
			c7.4,0.87,15.51,3.1,20.16,9.29c4.79,6.27,4.06,15.13-2.33,20c-10.46,9.82-27.34,11.92-41.19,12.55
			c-7.87-0.02-17.4-0.06-26.04-2.01c-10.59-8.56-27.13-42.4-10.99-69.21c2.15-3.57,5.03-6.98,8.58-10.14
			c19.67-17.44,33.1-13.02,37.9-10.4c-4.68,0.55-10.97,3.14-17.26,11.46c-5.41,6.67-6.92,15.66-3.93,23.48
			c2.72,7.16,8.84,12.33,16.99,14.52c-9.41,1.46-18.62,4.38-27.42,7.91l0.61,1.34C548.9,756.33,564.44,752.08,579.81,753.46z
			 M577.03,743.86c-1.87,2.47-2.98,6.06-3.53,8.19c-2.84,0.02-5.66,0.18-8.44,0.51c-9.33-1.56-16.35-6.83-19.27-14.48
			c-2.82-7.44-1.38-15.98,3.77-22.33c6.89-9.09,13.69-11.09,18.21-11.15c0.51-0.02,1.01,0,1.5,0.04c-0.47,0.3-0.91,0.63-1.34,0.97
			c-6.94,5.6-6.67,13.83-5.23,19.73c2.01,8.23,8.66,14.2,16.61,15.31C578.57,741.69,577.64,743.05,577.03,743.86z"/>
	</g>
	<g>
		<path d="M612.99,721.5c-10.97,12.07-21.44,18.19-31.09,18.19h-0.04c-8.54-0.02-15.96-6.02-18.07-14.6
			c-1.36-5.58-1.66-13.34,4.83-18.58c1.58-1.26,3.51-2.25,5.74-2.94c16.61-5.05,22.75-11.38,25.92-39.38l32.51-11.56
			C634.46,662.71,637.34,694.75,612.99,721.5z"/>
	</g>
	<g>
		<path class="st6" d="M580.2,807.95c-22.37,6.57-51.63,1.1-64.18-5.35c-7.14-3.69-8.84-10.52-8.98-15.7
			c1.66,3.83,4.5,6.85,8.54,9.04c8.23,4.42,23.46,7.69,39.46,7.69c12.15,0,24.76-1.91,35.06-6.65c7.83-3.77,12.67-8.19,14.44-13.14
			C605.65,794.07,601.19,801.78,580.2,807.95z"/>
	</g>
	<g>
		<path class="st6" d="M604.08,780.77c-0.63,5.74-5.52,10.85-14.48,15.19c-23.52,10.81-59.22,6.61-73.47-1.03
			c-4.75-2.56-7.79-6.35-9-11.3l-0.02-0.08c-0.67-2.72-0.63-5.33-0.43-7.26c0.32,0.83,0.65,1.66,1.01,2.45
			c8.4,17.48,31.96,17.7,48.77,17.74c8.19-0.3,16.57-1.2,24.46-3.53c6.23-1.89,13.04-4.79,17.42-9.29c2.74-2.11,4.52-4.89,5.33-7.89
			C604.06,777.24,604.29,778.93,604.08,780.77z"/>
	</g>
	<g>
		<path class="st6" d="M528,792.68c-8.25-2.27-15.43-6.51-19.25-14.46c-5.74-12.29-4.64-25.45,0-37.9c1.93-4.89,4.3-9.98,7.99-13.79
			C504.57,750.7,516.23,781.34,528,792.68z"/>
	</g>
	<g>
		<path class="st1" d="M579.28,740.64c-0.69,1.03-1.64,2.41-2.25,3.2c-1.87,2.47-2.98,6.06-3.53,8.19
			c-2.84,0.02-5.66,0.18-8.44,0.51c-9.33-1.56-16.35-6.83-19.27-14.48c-2.82-7.44-1.38-15.98,3.77-22.33
			c6.89-9.09,13.69-11.09,18.21-11.15c0.51-0.02,1.01,0,1.5,0.04c-0.47,0.3-0.91,0.63-1.34,0.97c-6.94,5.6-6.67,13.83-5.23,19.73
			C564.68,733.58,571.33,739.56,579.28,740.64z"/>
	</g>
	<g>
		<path class="st0" d="M597.62,782.76c-10.46,9.82-27.34,11.92-41.19,12.55c-7.87-0.02-17.4-0.06-26.04-2.01
			c-10.59-8.56-27.13-42.4-10.99-69.21c2.15-3.57,5.03-6.98,8.58-10.14c19.67-17.44,33.1-13.02,37.9-10.4
			c-4.68,0.55-10.97,3.14-17.26,11.46c-5.41,6.67-6.92,15.66-3.93,23.48c2.72,7.16,8.84,12.33,16.99,14.52
			c-9.41,1.46-18.62,4.38-27.42,7.91l0.61,1.34c14.07-5.94,29.61-10.18,44.96-8.8c7.4,0.87,15.51,3.1,20.16,9.29
			C604.77,769.03,604.04,777.89,597.62,782.76z"/>
	</g>
	<g>
		<g>
			<path class="st7" d="M832.9,696.11c-0.18-0.47-0.3-0.71-0.3-0.73c-0.02-0.06-0.61-1.28-1.97-2.8c0.04-1.76-0.36-4.83-2.92-7.46
				c-1.26-5.68-8.88-11.8-19.02-15.27c-17.24-5.88-35.53-2.47-48.93,9.13c-10.34,8.98-15.78,19.65-16.24,31.72
				c-1.66,0.51-4.04,1.34-6.75,2.54c-1.01-3.89-2.21-7.83-3.57-11.74c-12.45-36-35.87-62.22-42.71-69.38l-1.2,0.43
				c6.25,6.47,29.89,32.53,42.55,68.59c-6.08,0.36-22.37,3.04-29.02,21.41c-17.38-46.38-39.81-69.52-48.87-77.45l-1.24,0.43
				c8.68,7.48,31.88,30.82,49.58,78.91c3.27,8.88,6.21,18.23,8.78,27.8c0.16,1.87,0.41,3.73,0.83,5.66
				c2.15,10.36,5.48,18.23,9.92,23.38l0.02,0.37h0.14c1.91,6.16,7.2,9.04,10.32,10.26c1.62,2.13,3.91,3.79,6.79,4.91
				c0.47,0.22,0.97,0.41,1.46,0.57c0.28,0.1,0.55,0.2,0.83,0.3l2.96,1.09l-0.41-0.3c2.74,0.71,5.56,1.09,8.48,1.09
				c13.69-0.02,28.96-7.99,44.76-23.61c15.45-15.27,26.16-32.59,26.26-32.77C824.32,741.86,845,709.33,832.9,696.11z M744.66,711.15
				c0.34-11.92,5.68-22.43,15.86-31.29c13.08-11.32,30.93-14.66,47.78-8.92c8.62,2.94,15.51,7.99,17.7,12.74
				c-3.02-2.07-7.38-3.04-13.06-2.88c-17.22,0.49-41.49,18.51-65,48.22C746.65,725.9,744.44,719.32,744.66,711.15z M710.94,747.47
				c-2.25-7.95-4.73-15.74-7.48-23.2c6.21-19.25,23.06-21.7,28.78-21.98c1.3,3.83,2.47,7.65,3.45,11.46
				C726.23,718.21,711.55,728.21,710.94,747.47z M721.42,778.91c-3.65-4.97-6.47-12.09-8.36-21.19c-0.39-1.91-0.67-3.73-0.81-5.58
				c-1.89-22.02,14.48-32.97,24.4-37.52c2.7-1.26,5.13-2.11,6.85-2.66c-0.08,8.54,2.39,15.31,3.63,18.15
				c-5.46,6.96-10.97,14.68-16.35,22.92C723.69,763.33,720.57,772.03,721.42,778.91z M723,781.01v-0.1l-0.04-0.04l-0.08-0.3
				c-0.3-1.22-0.45-2.53-0.45-3.91c0-6.23,3.12-13.95,9.31-23c5.44-8.33,11.01-16.12,16.51-23.12
				c23.5-29.91,47.68-48.06,64.73-48.53c6.41-0.2,11.07,1.1,13.81,3.83c1.85,1.83,2.47,3.99,2.64,5.58
				c-3.63-3.24-10.93-6.73-23.85-1.8c-26.48,7.97-82.66,70.63-75.66,97.34c0.3,1.16,0.75,2.27,1.28,3.26
				C728.24,788.78,724.4,786.02,723,781.01z M733.14,791.13c-0.95-1.28-1.68-2.78-2.11-4.48c-3-11.5,6.33-31.9,25-54.59
				c17.18-20.91,37.25-37.52,49.93-41.33c4.5-1.74,8.29-2.39,11.44-2.39c6.43,0,10.24,2.74,12.23,4.87
				c0.22,0.24,0.41,0.45,0.59,0.67c-1.07-0.69-2.25-1.26-3.57-1.7c-24.42-8.44-73.07,40.34-88.91,81.02
				c-2.21,5.68-3.1,10.59-2.66,14.56c0.3,2.9,1.3,5.35,2.94,7.36C735.98,794.1,734.34,792.76,733.14,791.13z M822.47,742.61
				c-0.41,0.69-42.55,68.42-81.42,53.78c-2.8-2.11-4.44-5.05-4.81-8.76c-0.41-3.81,0.45-8.54,2.6-14.03
				c7.63-19.61,23.42-42.16,41.19-58.79c18.35-17.16,35.65-25.23,46.26-21.56c2.33,0.81,4.24,1.99,5.7,3.57
				C843.61,709.33,822.68,742.28,822.47,742.61z"/>
		</g>
	</g>
	<g>
		<path d="M731.85,701.17c-6.08,0.36-22.37,3.04-29.02,21.41c-17.38-46.38-39.81-69.52-48.87-77.45l35.33-12.55
			C695.55,639.04,719.19,665.1,731.85,701.17z"/>
	</g>
	<g>
		<path class="st7" d="M822.47,742.61c-0.41,0.69-42.55,68.42-81.42,53.78c-2.8-2.11-4.44-5.05-4.81-8.76
			c-0.41-3.81,0.45-8.54,2.6-14.03c7.63-19.61,23.42-42.16,41.19-58.79c18.35-17.16,35.65-25.23,46.26-21.56
			c2.33,0.81,4.24,1.99,5.7,3.57C843.61,709.33,822.68,742.28,822.47,742.61z"/>
	</g>
	<g>
		<path class="st8" d="M830.22,693.87c-1.07-0.69-2.25-1.26-3.57-1.7c-24.42-8.44-73.07,40.34-88.91,81.02
			c-2.21,5.68-3.1,10.59-2.66,14.56c0.3,2.9,1.3,5.35,2.94,7.36c-2.03-1.03-3.67-2.37-4.87-4c-0.95-1.28-1.68-2.78-2.11-4.48
			c-3-11.5,6.33-31.9,25-54.59c17.18-20.91,37.25-37.52,49.93-41.33c4.5-1.74,8.29-2.39,11.44-2.39c6.43,0,10.24,2.74,12.23,4.87
			C829.84,693.43,830.04,693.65,830.22,693.87z"/>
	</g>
	<g>
		<path class="st8" d="M829.43,691.4c-3.63-3.24-10.93-6.73-23.85-1.8c-26.48,7.97-82.66,70.63-75.66,97.34
			c0.3,1.16,0.75,2.27,1.28,3.26c-2.96-1.44-6.81-4.18-8.19-9.21v-0.1l-0.04-0.04l-0.08-0.3c-0.3-1.22-0.45-2.53-0.45-3.91
			c0-6.23,3.12-13.95,9.31-23c5.45-8.33,11.01-16.12,16.51-23.12c23.5-29.91,47.68-48.06,64.73-48.53c6.41-0.2,11.07,1.1,13.81,3.83
			C828.64,687.65,829.27,689.78,829.43,691.4z"/>
	</g>
	<g>
		<path class="st0" d="M826.02,683.69c-3.02-2.07-7.38-3.04-13.06-2.88c-17.22,0.49-41.49,18.51-65,48.22
			c-1.3-3.14-3.51-9.73-3.29-17.89c0.34-11.92,5.68-22.43,15.86-31.29c13.08-11.32,30.93-14.66,47.78-8.92
			C816.94,673.9,823.83,678.93,826.02,683.69z"/>
	</g>
	<g>
		<path class="st0" d="M730.77,752.99c-7.08,10.34-10.2,19.02-9.35,25.9c-3.65-4.97-6.47-12.09-8.36-21.19
			c-0.39-1.91-0.67-3.73-0.81-5.58c-1.89-22.02,14.48-32.97,24.4-37.52c2.7-1.26,5.13-2.11,6.85-2.66
			c-0.08,8.54,2.39,15.31,3.63,18.15C741.66,737.03,736.16,744.76,730.77,752.99z"/>
	</g>
	<g>
		<path class="st8" d="M735.72,713.77c-9.49,4.44-24.17,14.46-24.76,33.72c-2.25-7.95-4.73-15.74-7.48-23.2
			c6.21-19.25,23.06-21.7,28.78-21.98C733.59,706.12,734.73,709.96,735.72,713.77z"/>
	</g>
	<g>
		<g>
			<path class="st7" d="M688.67,466.26c-0.3,0.24-0.63,0.49-1.01,0.77c-3.99,3.12-10.67,8.35-22.41,7.22l-0.12,1.16
				c1.12,0.1,2.21,0.16,3.24,0.16c0.87,0,1.7-0.04,2.51-0.1c-2.72,3.63-11.34,11.07-38.55,18.84c-19.02,5.43-34.25,4.68-43.93,2.96
				c0.63-0.91,1.12-1.83,1.46-2.74l-1.09-0.39c-3.14,8.64-22.94,18.13-23.14,18.23l0.49,1.05c0.43-0.2,5.82-2.78,11.4-6.49
				c2.47,4.73,8.86,15.27,20.38,23.38c9.96,7,21.37,10.53,33.97,10.53c3.1,0,6.27-0.22,9.51-0.63c9.15-1.54,17.05-4.97,23.48-10.22
				c0.04-0.04,0.1-0.08,0.12-0.12c19.67-16.14,21.11-45.28,19.08-58.81c1.74-1.09,3.16-2.19,4.28-3.08
				c0.36-0.28,0.67-0.51,0.99-0.75c3.27-2.49,6.1-0.91,6.21-0.83l0.59-1.01C696.03,465.28,692.6,463.3,688.67,466.26z
				 M641.24,539.02c-16.06,2.13-30.36-1.1-42.49-9.61c17.74-13.73,45.06,5.54,45.06,5.54l0.59-0.81c0,0-8.7-6.81-21.35-9.69
				c0,0,17.38-10.2,40.94,4.7C657.76,534.23,650.08,537.54,641.24,539.02z"/>
		</g>
	</g>
	<g>
		<path class="st5" d="M663.99,529.17c-6.23,5.05-13.91,8.36-22.75,9.86c-16.06,2.13-30.36-1.1-42.49-9.61
			c17.74-13.73,45.06,5.54,45.06,5.54l0.59-0.81c0,0-8.7-6.81-21.35-9.69C623.05,524.46,640.43,514.26,663.99,529.17z"/>
	</g>
	<g>
		<g>
			<path class="st7" d="M678.71,538.66c-13.49,18.88-33.68,22.08-45.73,22.08c-6.04,0-10.04-0.81-10.16-0.83l0.24-1.14
				c0.36,0.08,34.92,6.92,54.71-20.77L678.71,538.66z"/>
		</g>
	</g>
	<g>
		<g>
			<path class="st7" d="M589.18,491.02l-0.51,1.05c-8.98-4.52-17.24,2.39-17.32,2.47l-0.77-0.89
				C570.68,493.57,579.49,486.15,589.18,491.02z"/>
		</g>
	</g>
	<g>
		<path class="st7" d="M831.82,366.87c-17.36-37.78-51.08-33.5-51.08-33.5c-6.92-16.2-18.19-37.05-34.82-38.15
			c-16.63-1.09-17.03,18.45-17.03,18.45c-9.96-10.32-18.15-9.07-21.84-7.62c-0.24,0.1-0.47,0.18-0.67,0.28
			c-0.28,1.05-0.55,2.13-0.81,3.26c0.24-0.18,0.47-0.34,0.71-0.49c7.97-5.13,19.47,3.39,22.43,7.32
			c2.84,3.75,14.78,15.8,17.68,18.72c0.18,0.18,0.41,0.26,0.63,0.26c0.24,0,0.47-0.1,0.63-0.28c0.36-0.36,0.34-0.95-0.04-1.28
			c-7.34-6.59-15.7-16.55-15.7-16.55c-0.97-20.12,13.91-19.61,13.91-19.61c18.17,1.32,32.31,35.89,32.31,35.89
			c-29.75,5.03-31.33,27.6-31.33,27.6c-6.21-1.91-17.54,0-17.54,0c-0.59-1.8-4.56-7.81-8.44-10.93c-3.1-2.51-13.91-8.9-18.15-11.38
			c-0.22-0.12-0.39-0.24-0.57-0.34c-0.02,1.03-0.04,2.07-0.06,3.12c0.18,0.1,0.37,0.22,0.57,0.36c3.2,1.91,9.96,6,12.55,7.85
			c3.39,2.47,10.95,8.64,11.01,12.55c0,0-15.21,4.58-12.94,21.25c2.27,16.67,16.35,16.89,25.8,20.69c0,0-2.21,10.95,3.14,16.3
			c0,0-11.32,15.01-19.39,23.2c-0.16,0.16-0.3,0.3-0.45,0.45c3.85,10.36,8.23,20.69,13.1,30.62c0.18-0.08,0.34-0.18,0.51-0.28
			c13.55-7.46,34.74-41.17,34.74-41.17c22.55,8.29,30.99-8.29,30.99-8.29C822.62,427.38,846.83,404.45,831.82,366.87z
			 M813.59,420.35c-8.03,2.37-14.03,2.27-19.29,1.24c-9.65-1.82-30.93-10.5-41.82-15.09c-5.72-2.41-11.5-4.62-17.38-6.59
			c-0.04-0.02-0.08-0.02-0.12-0.04c-19.63-6.55-19.61-12.78-18.82-21.92c0.77-9.13,12.53-17.46,31.01-13.77
			c0,0-2.21,22.79,32.79,19.71c0,0-0.16,29.08,27.15,19.67c0,0,10.85-4.93,14.4-21.5c0.18-0.83-0.45-1.62-1.3-1.66h-0.04
			c-0.67,0-1.22,0.47-1.36,1.12c-0.75,4.16-4.28,18.15-17.56,21.35c-16.16,2.68-21.78-13.97-16.89-28.35c0,0,4.24-10.34,7.71-15.13
			c0.37-0.53,0.3-1.26-0.18-1.68c-0.24-0.22-0.55-0.32-0.85-0.32c-0.39,0-0.81,0.2-1.05,0.55c-2.23,3.26-8.29,12.84-9.69,22.73
			c0,0-13.93,3.59-22.86-3.29c-8.94-6.89-7.36-16.3-7.36-16.3s1.64-23.14,34.9-24.84c34.64,1.18,45.24,33.28,47.35,41.73
			C834.42,386.46,835.88,411.59,813.59,420.35z"/>
	</g>
	<g>
		<path class="st1" d="M778.14,333.59c-29.75,5.03-31.33,27.6-31.33,27.6c-6.21-1.91-17.54,0-17.54,0
			c-0.59-1.8-4.56-7.81-8.44-10.93c-3.1-2.51-13.91-8.9-18.15-11.38c-0.22-0.12-0.39-0.24-0.57-0.34
			c0.32-11.92,1.74-21.5,3.43-28.94c0.24-0.18,0.47-0.34,0.71-0.49c7.97-5.13,19.47,3.39,22.43,7.32
			c2.84,3.75,14.78,15.8,17.68,18.72c0.18,0.18,0.41,0.26,0.63,0.26c0.24,0,0.47-0.1,0.63-0.28c0.36-0.36,0.34-0.95-0.04-1.28
			c-7.34-6.59-15.7-16.55-15.7-16.55c-0.97-20.12,13.91-19.61,13.91-19.61C764.01,299.03,778.14,333.59,778.14,333.59z"/>
		<path class="st7" d="M747.3,361.9l-0.65-0.2c-6.04-1.85-17.16,0-17.28,0.02l-0.45,0.08l-0.14-0.43
			c-0.51-1.58-4.38-7.56-8.27-10.69c-2.09-1.7-8.19-5.5-18.07-11.34l-0.85-0.51v-0.32c0.3-10.55,1.44-20.32,3.45-29.04l0.04-0.2
			l0.16-0.12c0.24-0.18,0.49-0.36,0.75-0.51c8.17-5.27,20.02,3.29,23.14,7.46c2.72,3.59,14.18,15.19,17.62,18.66
			c0.12,0.12,0.37,0.12,0.51-0.02c0.06-0.06,0.1-0.16,0.1-0.26c0-0.06-0.02-0.16-0.12-0.24c-7.28-6.53-15.66-16.49-15.76-16.59
			l-0.12-0.14v-0.18c-0.34-7.16,1.24-12.57,4.72-16.08c4.18-4.24,9.53-4.1,9.75-4.08c18.33,1.34,32.22,34.8,32.79,36.22l0.26,0.61
			l-0.65,0.12c-28.96,4.91-30.85,26.89-30.87,27.11L747.3,361.9z M702.7,338.23l0.3,0.18c9.94,5.86,16.06,9.71,18.21,11.42
			c3.63,2.92,7.44,8.42,8.44,10.75c2.09-0.32,11.03-1.56,16.73-0.08c0.55-3.75,4.66-22.55,31.01-27.32
			c-2.01-4.64-15.29-33.75-31.6-34.94c-0.04,0-5.09-0.12-8.94,3.79c-3.22,3.26-4.7,8.35-4.4,15.07c1.05,1.22,8.78,10.28,15.55,16.35
			c0.3,0.26,0.45,0.61,0.47,1.01s-0.14,0.77-0.39,1.05c-0.55,0.55-1.5,0.53-2.03,0.02c-4.44-4.46-15.01-15.23-17.72-18.78
			c-2.96-3.93-14.13-12.07-21.72-7.18c-0.18,0.12-0.36,0.24-0.51,0.36C704.12,318.42,702.99,327.95,702.7,338.23z"/>
	</g>
	<g>
		<path class="st8" d="M798.65,424.26c0,0-5.37,9.41-16.18,8.64c-10.81-0.77-27.7-7.04-36.1-12.72c-7.58-4.48-4.5-15.21-4.5-15.21
			s18.54,7.06,29.02,11.38C781.37,420.67,794.51,423.83,798.65,424.26z"/>
	</g>
	<g>
		<path class="st1" d="M813.59,420.35c-8.03,2.37-14.03,2.27-19.29,1.24c-9.65-1.82-30.93-10.5-41.82-15.09
			c-5.72-2.41-11.5-4.62-17.38-6.59c-0.04-0.02-0.08-0.02-0.12-0.04c-19.63-6.55-19.61-12.78-18.82-21.92
			c0.77-9.13,12.53-17.46,31.01-13.77c0,0-2.21,22.79,32.79,19.71c0,0-0.16,29.08,27.15,19.67c0,0,10.85-4.93,14.4-21.5
			c0.18-0.83-0.45-1.62-1.3-1.66h-0.04c-0.67,0-1.22,0.47-1.36,1.12c-0.75,4.16-4.28,18.15-17.56,21.35
			c-16.16,2.68-21.78-13.97-16.89-28.35c0,0,4.24-10.34,7.71-15.13c0.37-0.53,0.3-1.26-0.18-1.68c-0.24-0.22-0.55-0.32-0.85-0.32
			c-0.39,0-0.81,0.2-1.05,0.55c-2.23,3.26-8.29,12.84-9.69,22.73c0,0-13.93,3.59-22.86-3.29c-8.94-6.89-7.36-16.3-7.36-16.3
			s1.64-23.14,34.9-24.84c34.64,1.18,45.24,33.28,47.35,41.73C834.42,386.46,835.9,411.59,813.59,420.35z"/>
		<path class="st7" d="M801.28,422.82c-2.39,0-4.73-0.24-7.08-0.69c-9.61-1.82-30.38-10.26-41.92-15.13
			c-5.76-2.45-11.6-4.66-17.34-6.59c-19.65-6.55-20.14-12.82-19.31-22.51c0.34-3.87,2.53-7.52,6.16-10.26
			c6.08-4.56,15.37-6.02,25.49-4l0.47,0.1l-0.04,0.47c0,0.08-0.61,7.14,4.87,12.67c5.39,5.41,14.58,7.6,27.32,6.47l0.59-0.06v0.59
			c0,0.12,0.02,12.78,7.81,18.37c4.52,3.24,10.79,3.51,18.64,0.81c0.06-0.02,10.61-5.03,14.05-21.11c0.04-0.24,0-0.47-0.16-0.67
			c-0.16-0.2-0.39-0.32-0.65-0.34c-0.43,0-0.77,0.28-0.85,0.69c-0.77,4.28-4.36,18.49-17.97,21.76c-6.17,1.03-11.26-0.61-14.76-4.72
			c-4.79-5.64-5.88-15.19-2.76-24.32c0.18-0.45,4.32-10.5,7.77-15.27c0.22-0.32,0.18-0.71-0.1-0.97c-0.49-0.45-0.89-0.18-1.09,0.14
			c-2.43,3.57-8.25,12.88-9.59,22.51l-0.06,0.36l-0.36,0.1c-0.57,0.16-14.28,3.59-23.34-3.37c-9.09-7-7.58-16.71-7.56-16.81
			c0.02-0.18,2.05-23.58,35.41-25.29c35.87,1.22,46.18,35.31,47.88,42.14c2.23,9,3.18,34.23-19.06,42.97l-0.04,0.02
			C809.33,422.17,805.26,422.82,801.28,422.82z M738.58,363.83c-6.41,0-12.07,1.6-16.16,4.68c-3.39,2.54-5.45,5.92-5.74,9.49
			c-0.73,8.58-1.26,14.78,18.47,21.37c5.88,1.97,11.74,4.2,17.54,6.65c11.5,4.85,32.2,13.26,41.71,15.05
			c6.19,1.2,12.05,0.83,19.02-1.22c21.48-8.46,20.56-32.97,18.39-41.71c-1.68-6.69-11.8-40.13-46.83-41.33
			c-32.33,1.66-34.35,24.11-34.35,24.34c-0.02,0.14-1.4,9.23,7.16,15.82c7.85,6.06,19.89,3.75,22.06,3.27
			c1.48-9.71,7.28-19.02,9.73-22.59c0.59-0.87,1.93-1.03,2.7-0.34c0.69,0.61,0.81,1.64,0.26,2.39c-3.39,4.68-7.6,14.91-7.65,15.01
			c-2.92,8.62-1.89,17.97,2.58,23.26c3.24,3.81,7.97,5.33,13.73,4.36c12.92-3.12,16.37-16.79,17.12-20.91
			c0.18-0.91,0.97-1.56,1.89-1.56c0.65,0.02,1.16,0.3,1.52,0.75c0.34,0.43,0.47,1.01,0.36,1.56c-3.55,16.65-14.24,21.68-14.7,21.88
			c-8.25,2.84-14.86,2.53-19.67-0.95c-7.34-5.27-8.15-16-8.25-18.64c-12.8,1.05-22.1-1.26-27.64-6.85
			c-5.05-5.09-5.25-11.25-5.21-13.02C743.85,364.11,741.17,363.83,738.58,363.83z"/>
	</g>
</g>
</svg>
