<svg width="97" height="63" viewBox="0 0 97 63" fill="none" xmlns="http://www.w3.org/2000/svg">
<path d="M34.2123 3.29517C34.6389 2.87517 35.0976 2.41384 35.1776 1.81651C35.3149 0.801838 34.2149 -0.0275002 33.2016 0.000499725C33.2016 0.000499725 16.0123 1.14584 5.40693 14.5778C5.33626 14.6658 5.26693 14.7552 5.1976 14.8432C5.12293 14.9405 5.04826 15.0392 4.97493 15.1365C4.7616 15.4165 4.5536 15.6992 4.35226 15.9858C4.2816 16.0845 4.21093 16.1818 4.1416 16.2818C4.08426 16.3645 4.0336 16.4458 3.9776 16.5285C3.93493 16.5925 3.89093 16.6565 3.8496 16.7218C3.64827 17.0258 3.4576 17.3285 3.2816 17.6298C2.65493 18.6818 2.10293 19.7792 1.63893 20.9205C-0.805069 26.9285 -0.613068 34.1645 2.87227 39.6218C4.12827 41.5885 5.83093 43.3338 7.96693 44.2378C10.1016 45.1418 12.7043 45.0952 14.6069 43.7632C17.4869 41.7458 17.9403 37.7272 18.4696 34.2258C19.7696 13.9152 34.2123 3.29517 34.2123 3.29517Z" fill="#B5651D"/>
<path d="M94.6031 20.9211C94.1391 19.7798 93.5871 18.6824 92.9604 17.6291C92.7844 17.3291 92.5937 17.0251 92.3924 16.7211C92.3511 16.6571 92.3071 16.5931 92.2644 16.5278C92.2084 16.4464 92.1577 16.3638 92.1004 16.2824C92.0311 16.1824 91.9604 16.0851 91.8897 15.9864C91.6884 15.6984 91.4804 15.4158 91.2671 15.1371C91.1937 15.0384 91.1191 14.9398 91.0444 14.8438C90.9751 14.7544 90.9057 14.6664 90.8351 14.5784C80.2297 1.14644 63.0404 0.00110626 63.0404 0.00110626C62.0271 -0.0268936 60.9271 0.802441 61.0644 1.8171C61.1444 2.41444 61.6031 2.87444 62.0297 3.29577C62.0297 3.29577 76.4724 13.9158 77.7724 34.2264C78.3017 37.7264 78.7551 41.7464 81.6351 43.7624C83.5377 45.0958 86.1404 45.1424 88.2751 44.2384C90.4111 43.3344 92.1137 41.5891 93.3697 39.6224C96.8551 34.1651 97.0471 26.9291 94.6031 20.9211Z" fill="#B5651D"/>
<path d="M35.3785 20.0687C34.7719 20.0687 34.1999 20.2407 33.7172 20.5327C34.0692 20.61 34.3359 20.9327 34.3359 21.3074C34.3359 21.7474 33.9799 22.1047 33.5385 22.1047C33.1399 22.1047 32.8119 21.8127 32.7532 21.4327C32.3772 21.9567 32.1625 22.5927 32.1625 23.2834C32.1625 24.398 32.7225 25.374 33.5799 25.958C31.6039 25.7847 30.0492 24.13 30.0492 22.1047C30.0492 19.974 31.7825 18.2407 33.9132 18.2407C35.6519 18.2407 37.1239 19.39 37.6119 20.9674C37.0279 20.414 36.2479 20.0687 35.3785 20.0687ZM33.9132 16.9367C31.0612 16.9367 28.7452 19.2527 28.7452 22.1047C28.7452 24.9567 31.0612 27.274 33.9132 27.274C36.7665 27.274 39.0825 24.9567 39.0825 22.1047C39.0825 19.2527 36.7665 16.9367 33.9132 16.9367Z" fill="#8B4513"/>
<path d="M63.394 25.9574C64.2513 25.3734 64.8113 24.3974 64.8113 23.2841C64.8113 22.5934 64.5967 21.9561 64.222 21.4321C64.162 21.8134 63.834 22.1054 63.4353 22.1054C62.9953 22.1054 62.638 21.7481 62.638 21.3068C62.638 20.9321 62.906 20.6108 63.2567 20.5334C62.7753 20.2414 62.2033 20.0681 61.5953 20.0681C60.726 20.0681 59.946 20.4134 59.3687 20.9681C59.8513 19.3894 61.322 18.2401 63.0607 18.2401C65.198 18.2401 66.9247 19.9734 66.9247 22.1054C66.9247 24.1294 65.3713 25.7854 63.394 25.9574ZM63.0607 16.9361C60.2087 16.9361 57.8927 19.2534 57.8927 22.1054C57.8927 24.9574 60.2087 27.2734 63.0607 27.2734C65.9127 27.2734 68.2287 24.9574 68.2287 22.1054C68.2287 19.2534 65.9127 16.9361 63.0607 16.9361Z" fill="#8B4513"/>
<path d="M57.2312 51.3292C57.2312 56.3545 53.1459 60.4452 48.1205 60.4452C43.0952 60.4452 39.0112 56.3545 39.0112 51.3292V45.6905C43.4592 44.3265 46.6379 40.8198 48.1205 38.8839C49.6032 40.8198 52.7832 44.3265 57.2312 45.6905V51.3292ZM46.9592 32.7758C46.6805 32.6145 46.4659 32.4238 46.3112 32.1852C46.1565 31.9478 46.0725 31.6612 46.0725 31.3225C46.0725 31.0065 46.1565 30.7092 46.3045 30.4585C46.4659 30.2025 46.6859 29.9945 46.9712 29.8518C47.2099 29.7318 47.4952 29.6612 47.8179 29.6318V28.8745H48.6752V29.6492C49.0672 29.7092 49.4005 29.8398 49.6579 30.0358C49.9432 30.2558 50.1579 30.5598 50.3125 30.9412L50.3712 31.1025L49.4125 31.4892L49.3472 31.3279C49.2579 31.1145 49.1512 30.9412 49.0205 30.8158C48.9365 30.7265 48.8179 30.6612 48.6752 30.6132V32.3172C49.0325 32.4239 49.3232 32.5545 49.5619 32.6865C49.8352 32.8465 50.0499 33.0492 50.1805 33.2758C50.3245 33.5132 50.3952 33.7932 50.3952 34.1092C50.3952 34.4545 50.3245 34.7638 50.1699 35.0318C50.0085 35.2998 49.7819 35.5265 49.4965 35.6812C49.2579 35.8118 48.9845 35.8959 48.6752 35.9372V36.7412H47.8179V35.9372C47.3405 35.8839 46.9419 35.7465 46.6379 35.5318C46.3112 35.2945 46.0605 34.9612 45.9005 34.5492L45.8459 34.3945L46.8525 33.9785L46.9125 34.1452C47.0072 34.3945 47.1379 34.5972 47.3045 34.7398C47.4365 34.8478 47.6032 34.9305 47.8179 34.9665V33.1265C47.4832 33.0252 47.1979 32.9065 46.9592 32.7758ZM71.8725 38.1398C71.3605 38.0332 70.8365 38.3065 70.6459 38.7945C69.7592 41.0692 67.0019 44.0652 60.9765 44.0652H60.8512C56.1352 44.0345 52.4499 40.6345 50.5259 38.3785L50.5205 38.3718C50.6219 38.3305 50.7232 38.2825 50.8179 38.2358C51.1165 38.0918 51.3899 37.9198 51.6579 37.7292C51.9552 37.5145 52.2299 37.2772 52.4792 37.0212C52.7352 36.7585 52.9619 36.4785 53.1579 36.1758C53.2419 36.0558 53.3125 35.9372 53.3912 35.8118C53.4619 35.6812 53.5272 35.5505 53.5925 35.4185C53.6525 35.2879 53.7125 35.1505 53.7659 35.0145C53.8192 34.8825 53.8672 34.7519 53.9085 34.6145C53.9152 34.5919 53.9205 34.5732 53.9259 34.5558C53.9619 34.4372 53.9925 34.3118 54.0219 34.1918C54.0272 34.1798 54.0339 34.1625 54.0339 34.1452C54.0632 34.0078 54.0939 33.8705 54.1112 33.7345V33.7225C54.1352 33.5732 54.1525 33.4238 54.1645 33.2692C54.1765 33.1145 54.1832 32.9652 54.1832 32.8105V32.7985C54.1832 32.5905 54.1712 32.3878 54.1525 32.1918C54.1405 32.0785 54.1232 31.9652 54.1045 31.8585C54.0872 31.7038 54.0579 31.5612 54.0152 31.4118C54.0045 31.3465 53.9925 31.2865 53.9739 31.2212C53.9565 31.1558 53.9379 31.0905 53.9152 31.0305C53.9152 31.0185 53.9152 31.0132 53.9085 31.0065C53.8725 30.8812 53.8259 30.7572 53.7779 30.6319C53.6592 30.3158 53.5099 30.0118 53.3365 29.7212C53.2539 29.5772 53.1579 29.4345 53.0632 29.3038C52.9672 29.1665 52.8672 29.0358 52.7539 28.9052C52.5392 28.6492 52.3005 28.4172 52.0512 28.1905C51.9205 28.0825 51.7885 27.9758 51.6525 27.8812C51.3779 27.6838 51.0859 27.5118 50.7885 27.3625C50.6872 27.3092 50.5805 27.2612 50.4792 27.2198C50.4552 27.2078 50.4312 27.2025 50.4072 27.1905C50.3485 27.1665 50.2819 27.1425 50.2165 27.1185C50.1219 27.0825 50.0205 27.0465 49.9245 27.0172C49.8539 26.9932 49.7885 26.9758 49.7165 26.9572C49.5912 26.9225 49.4672 26.8918 49.3419 26.8678C49.1685 26.8332 48.9965 26.8025 48.8232 26.7852C48.7045 26.7732 48.5859 26.7612 48.4725 26.7558C48.3525 26.7492 48.2405 26.7439 48.1205 26.7439C46.7632 26.7439 45.5072 27.1905 44.4952 27.9465C44.2619 28.1252 44.0419 28.3158 43.8339 28.5172C43.6312 28.7265 43.4352 28.9465 43.2619 29.1785C42.5059 30.1905 42.0592 31.4478 42.0592 32.8105C42.0592 32.9652 42.0659 33.1212 42.0779 33.2758C42.0885 33.4238 42.1072 33.5785 42.1312 33.7278V33.7345C42.1485 33.8705 42.1779 34.0078 42.2085 34.1385C42.2085 34.1572 42.2139 34.1745 42.2205 34.1918C42.2445 34.3172 42.2792 34.4372 42.3152 34.5558C42.3632 34.7225 42.4232 34.8892 42.4885 35.0492C42.5352 35.1745 42.5899 35.2999 42.6485 35.4185C42.7139 35.5505 42.7792 35.6812 42.8512 35.8118C42.9285 35.9372 43.0059 36.0558 43.0832 36.1758C43.2805 36.4785 43.5059 36.7585 43.7619 37.0212C44.0125 37.2772 44.2859 37.5145 44.5845 37.7292C44.8525 37.9198 45.1259 38.0918 45.4232 38.2358C45.5192 38.2825 45.6205 38.3305 45.7219 38.3718L45.7152 38.3785C43.7925 40.6345 40.1059 44.0345 35.3899 44.0652C29.2752 44.1118 26.4885 41.0878 25.5952 38.7945C25.4045 38.3065 24.8805 38.0332 24.3685 38.1398C23.7139 38.2772 23.3205 38.9678 23.5712 39.5932C24.2792 41.3798 25.8339 43.4932 28.6019 44.8505C29.2579 47.2865 31.2939 52.2518 37.1525 54.0145C38.3619 58.9505 42.8219 62.6252 48.1205 62.6252C53.4205 62.6252 57.8805 58.9505 59.0885 54.0145C64.9485 52.2518 66.9845 47.2865 67.6392 44.8452C70.4085 43.4932 71.9619 41.3798 72.6712 39.5932C72.9205 38.9678 72.5285 38.2772 71.8725 38.1398Z" fill="#8B4513"/>
<path d="M49.3892 34.1569C49.3892 34.3955 49.3172 34.5795 49.1572 34.7222C49.0385 34.8355 48.8705 34.9129 48.6745 34.9609V33.3702C48.8052 33.4182 48.9252 33.4782 49.0319 33.5315C49.1572 33.6035 49.2465 33.6929 49.2999 33.7875C49.3532 33.8889 49.3892 34.0075 49.3892 34.1569Z" fill="#8B4513"/>
<path d="M47.8172 30.5782V32.0662C47.5905 31.9888 47.4185 31.8875 47.2985 31.7808C47.1625 31.6555 47.0905 31.4955 47.0905 31.2928C47.0905 31.0848 47.1625 30.9182 47.3052 30.7928C47.4185 30.6848 47.5905 30.6075 47.8172 30.5782Z" fill="#8B4513"/>
</svg>
