<?xml version="1.0" encoding="utf-8"?>
<!-- Generator: Adobe Illustrator 27.0.0, SVG Export Plug-In . SVG Version: 6.00 Build 0)  -->
<svg version="1.1" id="Layer_1" xmlns="http://www.w3.org/2000/svg" xmlns:xlink="http://www.w3.org/1999/xlink" x="0px" y="0px"
	 viewBox="0 0 1080 1080" style="enable-background:new 0 0 1080 1080;" xml:space="preserve">
<style type="text/css">
	.st0{fill:#3353EA;}
	.st1{fill:#FFFFFF;}
</style>
<g>
	<circle class="st0" cx="540" cy="540" r="185.71"/>
	<g>
		<path class="st1" d="M540.29,648.96c-7.19,0-13.16-2.36-17.87-7.11c-4.71-4.71-7.07-10.39-7.07-16.95
			c0-6.56,2.36-12.15,7.07-16.78c4.71-4.63,10.68-6.94,17.87-6.94s13.04,2.31,17.58,6.94c4.5,4.63,6.77,10.22,6.77,16.78
			c0,6.6-2.27,12.24-6.77,16.95C553.33,646.61,547.49,648.96,540.29,648.96z M524.9,575.33l-7.4-144.25h45.63l-7.99,144.25H524.9z"
			/>
	</g>
</g>
</svg>
