<?xml version="1.0" encoding="utf-8"?>
<!-- Generator: Adobe Illustrator 27.0.0, SVG Export Plug-In . SVG Version: 6.00 Build 0)  -->
<svg version="1.1" id="Layer_1" xmlns="http://www.w3.org/2000/svg" xmlns:xlink="http://www.w3.org/1999/xlink" x="0px" y="0px"
	 viewBox="0 0 1080 1080" style="enable-background:new 0 0 1080 1080;" xml:space="preserve">
<style type="text/css">
	.st0{fill:#F0E0D2;}
	.st1{fill:#40B974;}
	.st2{fill:#FDFCFA;}
	.st3{fill:#40B66C;}
	.st4{fill:#FFFFFF;}
	.st5{stroke:#000000;stroke-width:0.25;stroke-miterlimit:10;}
	.st6{fill:#FABC21;}
	.st7{fill:#FBBB20;}
</style>
<g>
	<g>
		<circle class="st0" cx="539.81" cy="540.08" r="259.74"/>
	</g>
	<g>
		<g>
			<g>
				<g>
					<g>
						<path d="M684.25,467.03c-6.2-11.89-38.52-117.03-38.83-118.11l-0.38-1.2l-205.32,64.03l-1.3,0.41l0.51,1.26
							c9.04,23.12,37.69,119.06,38.01,120.04l0.35,1.23l207.66-66.37L684.25,467.03z M478.93,531.57
							c-3.32-11.1-28.24-94.17-37.22-117.79l201.68-62.9c3.67,11.95,30.83,99.96,37.98,115.99L478.93,531.57z"/>
					</g>
				</g>
				<path class="st1" d="M643.4,350.89l-201.68,62.9c8.98,23.65,33.9,106.69,37.22,117.79l202.41-64.7
					C674.23,450.84,647.07,362.81,643.4,350.89z M661.45,444.87l-10.81,4.24c-1.3,0.51-1.96,1.96-1.42,3.29l2.37,6.1
					c0.32,0.89,0.28,1.83-0.09,2.69c-0.41,0.85-1.14,1.49-2.06,1.77l-144.07,46.04c-0.32,0.13-0.66,0.19-1.01,0.19
					c-1.42,0-2.75-0.89-3.23-2.31l-2.59-7.49c-0.44-1.3-1.83-1.99-3.16-1.61l-12.84,4.02l-19.7-63.62c-0.28-0.89-0.19-1.8,0.25-2.59
					c0.41-0.79,1.14-1.36,1.99-1.64l8.98-2.72c0.66-0.19,1.26-0.7,1.55-1.36c0.28-0.66,0.28-1.42,0-2.09l-2.47-5.47
					c-0.41-0.89-0.41-1.9-0.03-2.78c0.41-0.89,1.14-1.58,2.09-1.83v-0.03l144.57-46.04c0.89-0.28,1.87-0.19,2.69,0.28
					c0.79,0.44,1.39,1.26,1.61,2.15l2.25,9.11c0.19,0.66,0.6,1.26,1.2,1.61c0.6,0.35,1.3,0.41,1.96,0.25l11.98-3.38
					c1.77-0.54,3.64,0.54,4.17,2.31c2.97,10.12,13.03,44.14,17.74,56.7C664.05,442.27,663.19,444.2,661.45,444.87z"/>
			</g>
		</g>
		<g>
			<g>
				<g>
					<g>
						<path class="st2" d="M663.41,440.53c-4.71-12.55-14.77-46.58-17.74-56.7c-0.54-1.77-2.4-2.81-4.17-2.31l-11.98,3.38
							c-0.66,0.19-1.36,0.09-1.96-0.25c-0.6-0.35-1.01-0.92-1.2-1.61l-2.25-9.11c-0.22-0.89-0.82-1.71-1.61-2.15
							c-0.82-0.44-1.8-0.54-2.69-0.28l-144.57,46.04v0.03c-0.92,0.28-1.68,0.95-2.09,1.83c-0.38,0.89-0.38,1.9,0.03,2.78l2.47,5.47
							c0.28,0.66,0.28,1.42,0,2.09c-0.28,0.66-0.89,1.17-1.55,1.36l-8.98,2.72c-0.89,0.28-1.58,0.85-1.99,1.64
							c-0.41,0.79-0.54,1.74-0.25,2.59l19.7,63.62l12.84-4.02c1.33-0.41,2.69,0.28,3.16,1.61l2.59,7.49
							c0.47,1.39,1.8,2.31,3.23,2.31c0.32,0,0.66-0.06,1.01-0.19l144.07-46.04c0.89-0.28,1.64-0.92,2.06-1.77
							c0.41-0.82,0.41-1.8,0.09-2.69l-2.37-6.1c-0.54-1.3,0.13-2.78,1.42-3.29l10.81-4.24C663.19,444.2,664.05,442.27,663.41,440.53
							z M660.57,442.56l-10.81,4.24c-2.56,1.01-3.86,3.92-2.88,6.48l2.37,6.1c0.09,0.22,0.09,0.47-0.03,0.7
							c-0.09,0.22-0.28,0.41-0.54,0.47l-144.07,46.04c-0.44,0.16-0.98-0.09-1.14-0.54l-2.56-7.53c-0.73-2.09-2.66-3.38-4.74-3.38
							c-0.51,0-1.01,0.09-1.52,0.25l-10.44,3.26l-19-61.22c-0.06-0.22-0.06-0.44,0.06-0.66c0.09-0.19,0.28-0.38,0.54-0.41l8.98-2.72
							c1.36-0.41,2.53-1.42,3.13-2.75c0.57-1.3,0.57-2.81-0.03-4.14l-2.47-5.44c-0.16-0.32-0.06-0.6,0-0.76
							c0.06-0.13,0.19-0.38,0.54-0.47l144.54-46.04c0.25-0.09,0.51-0.06,0.73,0.06c0.22,0.13,0.38,0.32,0.41,0.57l2.25,9.11
							c0.32,1.36,1.17,2.43,2.34,3.16c1.2,0.7,2.56,0.89,3.89,0.51l11.98-3.38c0.51-0.13,0.98,0.13,1.11,0.6
							c2.97,10.15,13.06,44.24,17.8,56.89C661.23,441.89,661.01,442.37,660.57,442.56z"/>
					</g>
				</g>
				<path class="st1" d="M661.07,441.42c0.16,0.47-0.06,0.98-0.54,1.14l-10.81,4.24c-2.56,1.01-3.86,3.92-2.88,6.48l2.37,6.1
					c0.09,0.22,0.09,0.47-0.03,0.7c-0.09,0.22-0.28,0.41-0.54,0.47l-144.07,46.04c-0.44,0.16-0.98-0.09-1.14-0.54l-2.56-7.53
					c-0.73-2.09-2.66-3.38-4.74-3.38c-0.51,0-1.01,0.09-1.52,0.25l-10.44,3.26l-19-61.22c-0.06-0.22-0.06-0.44,0.06-0.66
					c0.09-0.19,0.28-0.38,0.54-0.41l8.98-2.72c1.36-0.41,2.53-1.42,3.13-2.75c0.57-1.3,0.57-2.81-0.03-4.14l-2.47-5.44
					c-0.16-0.32-0.06-0.6,0-0.76c0.06-0.13,0.19-0.38,0.54-0.47l144.54-46.04c0.25-0.09,0.51-0.06,0.73,0.06
					c0.22,0.13,0.38,0.32,0.41,0.57l2.25,9.11c0.32,1.36,1.17,2.43,2.34,3.16c1.2,0.7,2.56,0.89,3.89,0.51l11.98-3.38
					c0.51-0.13,0.98,0.13,1.11,0.6C646.24,394.68,656.33,428.77,661.07,441.42z"/>
			</g>
		</g>
		<g>
			<g>
				<g>
					<path class="st3" d="M570.83,445.91c-1.3-3.86-4.36-4.27-8.35-4.55l4.08,12.68C570.38,452.04,571.87,448.98,570.83,445.91z"/>
				</g>
			</g>
			<g>
				<path class="st2" d="M575.73,443.57c-1.96-5.76-6.67-7.18-12.14-7.43l-2.88-0.28l-4.24-13.22c2.91-0.47,5.53-0.03,8.1,1.04
					l1.52-4.11c-3.13-1.55-7.05-2.12-11.07-1.36l-1.58-4.96l-4.43,1.42l1.58,4.96c-6.17,2.85-9.23,8.51-7.4,13.91
					c1.96,5.76,7.4,6.96,11.79,7.15l2.47,0.22l4.68,14.58c-3.67,0.66-7.43,0.06-10.69-1.52l-1.8,4.46
					c4.11,2.02,8.98,2.72,13.95,1.55l1.58,4.9l4.43-1.42l-1.61-5C574.91,455.21,577.66,449.17,575.73,443.57z M548.18,431.49
					c-1.01-3,0.54-5.76,3.86-7.46l3.7,11.45C552.45,435.25,549.29,434.75,548.18,431.49z M566.56,454l-4.08-12.68
					c3.98,0.32,7.02,0.73,8.35,4.55C571.87,448.98,570.38,452.04,566.56,454z"/>
				<path class="st3" d="M555.74,435.47c-3.26-0.22-6.45-0.73-7.56-3.98c-1.01-3,0.54-5.76,3.86-7.46L555.74,435.47z"/>
			</g>
		</g>
	</g>
	<g>
		<g>
			<g>
				<g>
					<g>
						<path d="M416.96,519.78c-4.02,12.81-55.53,109.98-56.03,110.96l-0.57,1.11l190.46,99.89l1.2,0.63l0.54-1.23
							c9.96-22.74,57.52-110.87,57.99-111.75l0.63-1.11l-193.75-99.89L416.96,519.78z M607.73,619.32
							c-5.5,10.18-46.61,86.55-56.95,109.63L363.7,630.83c5.85-11.04,48.89-92.49,55.15-108.87L607.73,619.32z"/>
					</g>
				</g>
				<path class="st1" d="M363.7,630.8l187.07,98.12c10.34-23.08,51.48-99.42,56.95-109.63L418.85,521.9
					C412.56,538.31,369.55,619.76,363.7,630.8z M417.4,551.56l10.62,4.68c1.26,0.57,2.78-0.03,3.32-1.3l2.62-5.98
					c0.38-0.85,1.11-1.52,1.96-1.83c0.89-0.32,1.87-0.25,2.69,0.19l134.39,69.31c0.32,0.13,0.6,0.35,0.82,0.57
					c1.01,1.01,1.3,2.59,0.66,3.89l-3.48,7.15c-0.6,1.23-0.13,2.69,1.11,3.35l11.92,6.23l-31.05,58.91
					c-0.41,0.82-1.14,1.39-2.02,1.68s-1.77,0.19-2.59-0.25l-8.25-4.43c-0.63-0.35-1.39-0.38-2.06-0.13
					c-0.66,0.25-1.23,0.79-1.45,1.45l-2.12,5.63c-0.35,0.89-1.08,1.61-1.93,1.99c-0.92,0.35-1.93,0.28-2.78-0.16l-0.03,0.03
					l-134.8-69.66c-0.82-0.44-1.45-1.2-1.71-2.09c-0.25-0.89-0.09-1.87,0.38-2.66l4.87-8.03c0.35-0.6,0.47-1.3,0.28-1.99
					c-0.19-0.7-0.63-1.23-1.2-1.55l-10.88-6.07c-1.61-0.89-2.21-2.94-1.33-4.59c5.06-9.27,21.98-40.41,27.54-52.65
					C413.7,551.56,415.69,550.8,417.4,551.56z"/>
			</g>
		</g>
		<g>
			<g>
				<g>
					<g>
						<path class="st2" d="M412.94,553.23c-5.57,12.21-22.48,43.38-27.54,52.65c-0.89,1.61-0.28,3.7,1.33,4.59l10.88,6.07
							c0.57,0.35,1.01,0.89,1.2,1.55c0.19,0.66,0.06,1.39-0.28,1.99l-4.87,8.03c-0.47,0.79-0.63,1.77-0.38,2.66s0.89,1.68,1.71,2.09
							l134.8,69.66l0.03-0.03c0.85,0.47,1.87,0.51,2.78,0.16c0.89-0.35,1.61-1.08,1.93-1.99l2.12-5.63
							c0.25-0.66,0.79-1.23,1.45-1.45c0.7-0.25,1.45-0.22,2.06,0.13l8.25,4.43c0.82,0.41,1.71,0.51,2.59,0.25
							c0.89-0.25,1.58-0.85,2.02-1.68l31.05-58.91l-11.92-6.23c-1.23-0.66-1.71-2.12-1.11-3.35l3.48-7.15
							c0.66-1.33,0.35-2.91-0.66-3.89c-0.22-0.22-0.51-0.44-0.82-0.57l-134.39-69.31c-0.82-0.44-1.83-0.51-2.69-0.19
							c-0.85,0.28-1.58,0.98-1.96,1.83l-2.62,5.98c-0.54,1.3-2.06,1.87-3.32,1.3l-10.62-4.68
							C415.69,550.8,413.7,551.56,412.94,553.23z M416.39,553.83l10.62,4.68c2.53,1.11,5.5-0.03,6.64-2.56l2.62-5.98
							c0.09-0.22,0.25-0.41,0.51-0.47c0.22-0.09,0.47-0.09,0.7,0.03l134.42,69.31c0.41,0.22,0.63,0.76,0.41,1.17l-3.51,7.15
							c-0.95,1.99-0.54,4.27,0.95,5.76c0.35,0.35,0.79,0.63,1.26,0.89l9.68,5.09l-29.85,56.73c-0.13,0.19-0.28,0.35-0.54,0.41
							c-0.22,0.06-0.47,0.06-0.66-0.06l-8.28-4.43c-1.26-0.66-2.78-0.79-4.14-0.25c-1.33,0.51-2.4,1.58-2.91,2.94l-2.09,5.6
							c-0.13,0.35-0.38,0.47-0.54,0.54c-0.13,0.06-0.41,0.13-0.73-0.06l-134.77-69.66c-0.25-0.09-0.38-0.32-0.47-0.54
							c-0.06-0.25-0.03-0.51,0.09-0.7l4.87-8.03c0.73-1.17,0.89-2.56,0.57-3.89c-0.35-1.33-1.2-2.43-2.4-3.1l-10.88-6.07
							c-0.44-0.25-0.6-0.79-0.35-1.2c5.06-9.27,22.04-40.51,27.61-52.81C415.44,553.83,415.94,553.64,416.39,553.83z"/>
					</g>
				</g>
				<path class="st1" d="M415.18,554.28c0.22-0.44,0.73-0.63,1.17-0.44l10.62,4.68c2.53,1.11,5.5-0.03,6.64-2.56l2.62-5.98
					c0.09-0.22,0.25-0.41,0.51-0.47c0.22-0.09,0.47-0.09,0.7,0.03l134.42,69.31c0.41,0.22,0.63,0.76,0.41,1.17l-3.51,7.15
					c-0.95,1.99-0.54,4.27,0.95,5.76c0.35,0.35,0.79,0.63,1.26,0.89l9.68,5.09l-29.85,56.73c-0.13,0.19-0.28,0.35-0.54,0.41
					c-0.22,0.06-0.47,0.06-0.66-0.06l-8.28-4.43c-1.26-0.66-2.78-0.79-4.14-0.25c-1.33,0.51-2.4,1.58-2.91,2.94l-2.09,5.6
					c-0.13,0.35-0.38,0.47-0.54,0.54c-0.13,0.06-0.41,0.13-0.73-0.06l-134.77-69.66c-0.25-0.09-0.38-0.32-0.47-0.54
					c-0.06-0.25-0.03-0.51,0.09-0.7l4.87-8.03c0.73-1.17,0.89-2.56,0.57-3.89c-0.35-1.33-1.2-2.43-2.4-3.1l-10.88-6.07
					c-0.44-0.25-0.6-0.79-0.35-1.2C392.67,597.82,409.62,566.58,415.18,554.28z"/>
			</g>
		</g>
		<g>
			<g>
				<g>
					<path class="st3" d="M482.19,614.93c-1.8,3.64,0.06,6.07,2.66,9.14l6.07-11.86C486.87,610.88,483.61,612.02,482.19,614.93z"/>
				</g>
			</g>
			<g>
				<path class="st2" d="M477.07,613.09c-2.69,5.44-0.35,9.8,3.32,13.85l1.83,2.21l-6.36,12.36c-2.4-1.74-3.95-3.89-5-6.45
					l-3.98,1.83c1.14,3.32,3.48,6.48,6.83,8.79l-2.37,4.62l4.11,2.12l2.37-4.62c6.39,2.34,12.55,0.51,15.08-4.62
					c2.69-5.44-0.32-10.15-3.26-13.41l-1.58-1.9l6.99-13.6c3.07,2.12,5.28,5.22,6.48,8.63l4.43-1.87
					c-1.49-4.33-4.43-8.25-8.76-10.97l2.34-4.59l-4.11-2.12l-2.4,4.68C485.89,605.47,479.69,607.78,477.07,613.09z M488.04,641.11
					c-1.39,2.85-4.46,3.7-8,2.53l5.47-10.69C487.66,635.42,489.53,638.04,488.04,641.11z M490.95,612.21l-6.07,11.86
					c-2.59-3.04-4.46-5.47-2.66-9.14C483.61,612.02,486.87,610.88,490.95,612.21z"/>
				<path class="st3" d="M485.51,632.95c2.15,2.47,4.05,5.09,2.53,8.16c-1.39,2.85-4.46,3.7-8,2.53L485.51,632.95z"/>
			</g>
		</g>
	</g>
	<g>
		<g>
			<path class="st4" d="M664.71,551.15c-2.18-10.28-9.2-18.28-18.18-22.17l0,0c-5.76-2.5-12.33-3.29-18.97-1.9
				c-16.98,3.57-27.83,20.17-24.25,37.06c1.01,4.74,3.04,9.01,5.82,12.62c0,0,0,0.03,0.03,0.03l0,0
				c7.11,9.17,19.13,14.01,31.31,11.45C657.41,584.6,668.25,568.03,664.71,551.15z M648.71,581.69c-13.6,7.87-30.86,3.48-38.52-9.8
				c-7.65-13.28-2.85-30.39,10.78-38.26c13.6-7.87,30.86-3.48,38.52,9.8C667.15,556.68,662.34,573.82,648.71,581.69z"/>
			<path d="M634.01,589.6c-9.71,0-19.13-4.4-25.27-12.11h-0.09l-0.28-0.51c-2.85-3.7-4.84-8-5.85-12.71
				c-1.77-8.35-0.16-16.92,4.55-24.06c4.68-7.18,11.89-12.08,20.3-13.85c6.55-1.39,13.19-0.73,19.29,1.9l0.16,0.06
				c9.52,4.11,16.47,12.62,18.59,22.7l0,0c3.64,17.27-7.49,34.28-24.85,37.95C638.4,589.38,636.19,589.6,634.01,589.6z
				 M609.88,576.47c7.15,9.04,19.07,13.34,30.42,10.97c16.54-3.48,27.16-19.7,23.68-36.14l0,0c-2.02-9.58-8.6-17.64-17.61-21.6
				l-0.16-0.06c-5.85-2.53-12.24-3.19-18.53-1.87c-8,1.68-14.89,6.39-19.35,13.22c-4.46,6.83-6.01,14.99-4.33,22.96
				c0.92,4.43,2.78,8.47,5.5,12.05h0.38V576.47z M634.26,586.34c-2.4,0-4.84-0.28-7.24-0.92c-7.46-1.9-13.69-6.58-17.49-13.19
				c-7.84-13.6-2.88-31.24,11.07-39.27c13.95-8.06,31.68-3.54,39.56,10.06c3.79,6.61,4.74,14.32,2.66,21.72
				c-2.09,7.43-6.96,13.66-13.72,17.55l0,0C644.47,584.98,639.38,586.34,634.26,586.34z M635.43,530.5c-4.77,0-9.61,1.23-14.07,3.79
				c-13.25,7.65-17.96,24.35-10.5,37.25c3.6,6.23,9.49,10.66,16.57,12.46c7.08,1.8,14.51,0.76,20.93-2.94l0,0
				c6.42-3.7,11.04-9.61,13.03-16.66c1.99-7.02,1.08-14.36-2.53-20.59C653.9,535.24,644.82,530.5,635.43,530.5z"/>
		</g>
		<g>
			<g>
				<g>
					<path class="st5" d="M666.99,552.09c-2.28-10.85-9.9-19.61-20.33-23.43l-0.13,0.28l-0.13,0.28
						c9.2,3.98,15.94,12.21,17.99,21.98c3.51,16.7-7.24,33.14-24.03,36.68c-11.61,2.43-23.78-1.99-30.99-11.32l-0.25,0.19
						l-0.25,0.19c6.07,8.82,16,13.91,26.47,13.91c2.25,0,4.49-0.22,6.74-0.7C659.46,586.44,670.62,569.39,666.99,552.09z
						 M642.01,589.82c-13,2.75-25.83-2.81-32.89-13.09c7.11,9.17,19.13,14.01,31.31,11.45c16.95-3.57,27.83-20.17,24.25-37.06
						c-2.18-10.28-9.2-18.28-18.18-22.17c9.93,3.67,17.8,12.14,20.14,23.21C670.31,569.33,659.24,586.18,642.01,589.82z"/>
				</g>
			</g>
			<g>
				<g>
					<path class="st6" d="M642.01,589.82c-13,2.75-25.83-2.81-32.89-13.09c7.11,9.17,19.13,14.01,31.31,11.45
						c16.95-3.57,27.83-20.17,24.25-37.06c-2.18-10.28-9.2-18.28-18.18-22.17c9.93,3.67,17.8,12.14,20.14,23.21
						C670.31,569.33,659.24,586.18,642.01,589.82z"/>
				</g>
				<g>
					<path d="M635.33,590.7c-10.44,0-20.3-5.06-26.37-13.85l0.32-0.22c7.27,9.36,19.48,13.82,31.12,11.38
						c16.82-3.54,27.67-20.08,24.13-36.84c-2.09-9.8-8.82-18.06-18.06-22.04l0.13-0.35c10.4,3.83,17.99,12.55,20.27,23.37
						c3.64,17.23-7.49,34.21-24.82,37.88l0,0C639.79,590.48,637.55,590.7,635.33,590.7z M613.23,581.34
						c7.46,7.3,18.18,10.53,28.74,8.32l0,0c17.11-3.6,28.11-20.4,24.51-37.44c-1.8-8.6-7.02-15.87-14.36-20.36
						c6.48,4.52,11.1,11.38,12.78,19.23c3.57,16.95-7.37,33.68-24.41,37.28C630.75,590.42,620.6,587.7,613.23,581.34z"/>
				</g>
			</g>
		</g>
		<g>
			<g>
				<g>
					<path class="st7" d="M648.71,581.69c-13.6,7.87-30.86,3.48-38.52-9.8c-7.65-13.28-2.85-30.39,10.78-38.26
						c13.6-7.87,30.86-3.48,38.52,9.8C667.15,556.68,662.34,573.82,648.71,581.69z"/>
				</g>
			</g>
		</g>
		<g>
			<g>
				<g>
					<path class="st4" d="M645.55,560.7c-1.14-3.92-4.27-5-7.91-5.34l-1.93-0.25l-2.47-8.98c1.96-0.22,3.73,0.13,5.41,0.92
						l1.14-2.69c-2.06-1.14-4.65-1.64-7.37-1.23l-0.92-3.38l-3,0.82l0.92,3.35c-4.24,1.74-6.42,5.44-5.34,9.11
						c1.14,3.92,4.74,4.87,7.68,5.15l1.64,0.22l2.72,9.9c-2.5,0.35-5-0.19-7.11-1.33l-1.33,2.94c2.69,1.49,5.94,2.09,9.3,1.45
						l0.92,3.32l3-0.82l-0.95-3.42C644.66,568.47,646.69,564.52,645.55,560.7z M627.46,551.81c-0.6-2.06,0.54-3.86,2.81-4.9
						l2.12,7.78C630.21,554.47,628.09,554.02,627.46,551.81z M639.1,567.43l-2.37-8.6c2.66,0.32,4.68,0.7,5.47,3.29
						C642.83,564.21,641.72,566.23,639.1,567.43z"/>
				</g>
			</g>
		</g>
	</g>
	<g>
		<g>
			<path class="st4" d="M717.61,502.26c-1.23-5.82-5.22-10.37-10.31-12.59l0,0c-3.26-1.42-6.99-1.87-10.75-1.08
				c-9.61,2.02-15.78,11.45-13.76,21c0.57,2.69,1.71,5.12,3.29,7.15c0,0,0,0,0,0.03l0,0c4.05,5.22,10.85,7.94,17.74,6.48
				C713.47,521.23,719.64,511.81,717.61,502.26z M708.54,519.56c-7.72,4.46-17.49,1.96-21.85-5.57c-4.36-7.53-1.61-17.23,6.1-21.69
				c7.72-4.46,17.49-1.96,21.85,5.57C719.01,505.39,716.25,515.13,708.54,519.56z"/>
			<path d="M700.22,524.05c-5.5,0-10.85-2.5-14.32-6.86h-0.06l-0.16-0.28c-1.61-2.09-2.75-4.55-3.32-7.21
				c-1.01-4.74-0.09-9.58,2.56-13.66c2.66-4.05,6.74-6.86,11.51-7.84c3.7-0.79,7.49-0.41,10.94,1.08l0.09,0.03
				c5.41,2.34,9.33,7.15,10.56,12.87l0,0c2.06,9.77-4.27,19.45-14.1,21.5C702.69,523.92,701.46,524.05,700.22,524.05z
				 M686.53,516.61c4.05,5.12,10.81,7.56,17.23,6.23c9.36-1.99,15.4-11.16,13.44-20.49l0,0c-1.14-5.44-4.87-9.99-9.99-12.24
				l-0.09-0.03c-3.32-1.45-6.96-1.8-10.5-1.04c-4.55,0.95-8.44,3.6-10.97,7.49c-2.53,3.86-3.42,8.51-2.47,13
				c0.54,2.5,1.58,4.81,3.1,6.83h0.22L686.53,516.61z M700.35,522.21c-1.36,0-2.75-0.16-4.11-0.51c-4.24-1.08-7.75-3.73-9.93-7.46
				c-4.46-7.72-1.64-17.71,6.26-22.26c7.91-4.55,17.96-1.99,22.42,5.69c2.15,3.73,2.69,8.13,1.52,12.33s-3.95,7.75-7.78,9.96l0,0
				C706.14,521.45,703.26,522.21,700.35,522.21z M701.01,490.53c-2.72,0-5.47,0.7-7.97,2.15c-7.49,4.33-10.18,13.82-5.94,21.12
				c2.06,3.54,5.38,6.04,9.39,7.08c4.02,1.01,8.22,0.41,11.86-1.68l0,0c3.64-2.09,6.26-5.44,7.4-9.45
				c1.14-3.98,0.63-8.13-1.42-11.67C711.48,493.25,706.36,490.53,701.01,490.53z"/>
		</g>
		<g>
			<g>
				<g>
					<path class="st5" d="M718.91,502.8c-1.3-6.13-5.6-11.1-11.54-13.28l-0.06,0.16l-0.06,0.16c5.22,2.25,9.04,6.93,10.21,12.46
						c1.99,9.45-4.11,18.78-13.63,20.81c-6.58,1.39-13.47-1.14-17.58-6.42l-0.16,0.09l-0.13,0.09c3.45,5,9.08,7.87,15.02,7.87
						c1.26,0,2.53-0.13,3.83-0.41C714.64,522.27,720.97,512.6,718.91,502.8z M704.74,524.17c-7.37,1.55-14.64-1.58-18.66-7.43
						c4.05,5.22,10.85,7.94,17.74,6.48c9.61-2.02,15.78-11.45,13.76-21c-1.23-5.82-5.22-10.37-10.31-12.59
						c5.63,2.09,10.09,6.89,11.42,13.15C720.78,512.57,714.51,522.12,704.74,524.17z"/>
				</g>
			</g>
			<g>
				<g>
					<path class="st6" d="M704.74,524.17c-7.37,1.55-14.64-1.58-18.66-7.43c4.05,5.22,10.85,7.94,17.74,6.48
						c9.61-2.02,15.78-11.45,13.76-21c-1.23-5.82-5.22-10.37-10.31-12.59c5.63,2.09,10.09,6.89,11.42,13.15
						C720.78,512.57,714.51,522.12,704.74,524.17z"/>
				</g>
				<g>
					<path d="M700.95,524.68c-5.91,0-11.51-2.88-14.96-7.84l0.16-0.13c4.11,5.31,11.04,7.84,17.64,6.45
						c9.55-2.02,15.68-11.38,13.69-20.87c-1.17-5.57-5-10.25-10.25-12.49l0.06-0.19c5.91,2.18,10.18,7.11,11.48,13.25
						c2.06,9.77-4.24,19.38-14.07,21.47l0,0C703.48,524.55,702.21,524.68,700.95,524.68z M688.43,519.37
						c4.24,4.14,10.31,5.98,16.29,4.71l0,0c9.71-2.06,15.94-11.57,13.91-21.22c-1.04-4.87-3.98-9.01-8.16-11.54
						c3.67,2.56,6.29,6.45,7.24,10.91c2.02,9.61-4.17,19.1-13.85,21.12C698.36,524.52,692.6,522.97,688.43,519.37z"/>
				</g>
			</g>
		</g>
		<g>
			<g>
				<g>
					<path class="st7" d="M708.54,519.56c-7.72,4.46-17.49,1.96-21.85-5.57c-4.33-7.53-1.61-17.23,6.1-21.69
						c7.72-4.46,17.49-1.96,21.85,5.57C719.01,505.39,716.25,515.13,708.54,519.56z"/>
				</g>
			</g>
		</g>
		<g>
			<g>
				<g>
					<path class="st4" d="M706.77,507.67c-0.66-2.21-2.43-2.85-4.49-3.04l-1.08-0.16l-1.39-5.09c1.11-0.13,2.12,0.06,3.07,0.54
						l0.63-1.52c-1.17-0.63-2.66-0.92-4.17-0.7l-0.54-1.9l-1.71,0.47l0.54,1.9c-2.4,0.98-3.64,3.07-3.04,5.15
						c0.66,2.21,2.69,2.75,4.36,2.91l0.92,0.13l1.55,5.6c-1.42,0.19-2.81-0.09-4.05-0.76l-0.76,1.68c1.52,0.82,3.35,1.17,5.28,0.82
						l0.51,1.9l1.71-0.47l-0.54-1.93C706.23,512.09,707.4,509.85,706.77,507.67z M696.49,502.64c-0.35-1.17,0.28-2.18,1.58-2.78
						l1.2,4.4C698.04,504.12,696.84,503.87,696.49,502.64z M703.1,511.49l-1.33-4.87c1.52,0.19,2.66,0.38,3.1,1.87
						C705.22,509.66,704.59,510.8,703.1,511.49z"/>
				</g>
			</g>
		</g>
	</g>
</g>
</svg>
