<?xml version="1.0" encoding="utf-8"?>
<!-- Generator: Adobe Illustrator 27.0.0, SVG Export Plug-In . SVG Version: 6.00 Build 0)  -->
<svg version="1.1" id="Layer_1" xmlns="http://www.w3.org/2000/svg" xmlns:xlink="http://www.w3.org/1999/xlink" x="0px" y="0px"
	 viewBox="0 0 1080 1080" style="enable-background:new 0 0 1080 1080;" xml:space="preserve">
<style type="text/css">
	.st0{fill:#EBEBEB;}
	.st1{fill:#FFFFFF;}
	.st2{fill:none;}
	.st3{fill:#8B4513;}
</style>
<g>
	<g>
		<ellipse class="st0" cx="546.63" cy="806.98" rx="280.31" ry="25.45"/>
	</g>
	<g>
		<path class="st1" d="M825.62,677.29c-1.76-6.02-3.58-12.04-5.34-18.05c-10.47-36.11-20.92-72.22-31.37-108.33
			c-1.47-5.11-4.57-6.99-9.83-6c-1.49,0.27-2.98,0.54-4.57,0.81c-0.27-1.18-0.46-2.01-0.66-2.84c-1.37-5.84-3.73-11.22-7.72-15.73
			c-1.82-2.09-4.9-3.46-5.82-5.81c-0.95-2.36,0.31-5.5,0.15-8.26c-0.56-10.02-8.32-21.52-21.6-19.14c-1.34,0.23-3.04-0.37-4.26-1.1
			c-5.82-3.52-11.71-3.08-16.26,1.99c-2.21,2.46-4.12,5.46-5.26,8.53c-1.39,3.77-2.07,7.86-2.57,11.86
			c-0.31,2.48-1.24,3.66-3.58,4.45c-13.57,4.66-27.54,5.86-41.76,4.97c-1.22-0.08-2.4-0.37-3.64-0.54
			c-0.08-1.08-0.08-1.86-0.23-2.59c-0.72-3.31,0.6-4.78,3.87-5.96c24.56-9,46.97-21.63,66.41-39.38
			c26.43-24.09,41.01-53.76,42.98-89.56c0.14-2.52-0.56-3.25-3.06-3.52c-21.07-2.32-39.98-10.06-56.7-23.14
			c-1.04-0.81-2.03-1.7-3.1-2.57c0.27-0.56,0.41-0.93,0.6-1.24c14.69-22.31,20.36-46.93,18.62-73.4
			c-0.56-8.51-1.88-16.93-5.88-24.63c-3.89-7.49-10.78-11.3-19.06-10.39c-3.83,0.43-7.68,0.99-11.42,1.9
			c-21.5,5.28-40.06,16.06-56.54,30.63c-1.9,1.68-3.23,2.17-5.71,0.91c-11.05-5.67-22.7-9.25-35.26-9.29
			c-0.21,0-0.45-0.23-1.41-0.81c5.11-4.99,9.97-9.75,15.04-14.71c-0.95-0.23-1.84-0.52-2.73-0.7c-17.15-3.41-33.85-1.08-50.33,3.95
			c-11.88,3.64-22.47,9.33-30.3,19.33c-0.56,0.72-1.76,1.1-2.75,1.3c-10.84,2.07-20.65,6.39-29.41,13.04
			c-1.49,1.12-2.48,0.97-4.06,0.08c-8.17-4.59-16.22-9.46-24.71-13.35c-16.68-7.64-34.14-12.38-52.77-11.09
			c-11.55,0.81-18.04,6.71-19.91,18.15c-1.74,10.6-1.28,21.21,0.66,31.74c4.86,26.65,16.87,49.17,38.34,66.2
			c0.43,0.33,0.75,0.79,1.24,1.3c-13.72,21.6-32.55,34.12-59.39,34.14c2.75,8.32,5.34,16.14,8.05,24.38
			c-0.7-0.27-1.06-0.39-1.39-0.56c-13.97-6.79-28.7-10.89-44.22-11.96c-19.58-1.34-37.87,2.65-54.36,13.7
			c-23.14,15.52-34.46,43.91-27.54,69.53c3.75,13.86,11.42,24.25,26.59,26.51c5.46,0.81,11.15,0.29,16.72,0.02
			c4.53-0.21,9.02-1.35,13.51-1.34c6.87,0.06,11.24,4.14,12.13,10.93c0.43,3.23,0.62,6.58,0.27,9.81
			c-1.32,11.61-3.12,23.16-4.37,34.77c-3.87,35.45,3.7,68.25,23.71,97.92c27.54,40.77,72.34,54.57,111.04,43.99
			c0.93-0.25,2.4,0.37,3.19,1.06c5.13,4.55,10.18,9.17,15.13,13.89c0.7,0.66,1.37,2.11,1.1,2.86c-1.7,4.9-3.5,9.75-5.61,14.49
			c-1.24,2.75-3.73,3.89-6.85,4.66c-3.93,0.99-7.93,2.63-11.17,5.01c-2.34,1.72-4.28,4.92-4.97,7.78
			c-1.95,8.07,2.98,14.69,11.22,16.24c1.3,0.25,3,0.72,3.64,1.68c4.24,6.31,8.21,8.05,15.73,6.64c0.95-0.17,2.11-0.02,3,0.39
			c10.88,4.9,20.53-0.25,22.2-12.06c0.56-4.1,0.5-8.28,0.68-12.44c0.08-1.61,0.6-2.38,2.4-2.42c19.39-0.31,35.8-8.22,50.24-20.45
			c4.01-3.39,7.61-5.75,12.98-4.76c1.95,0.37,4.06,0.1,6.08-0.17c2.26-0.31,3.5,0.54,3.91,2.71c0.68,3.58,1.64,7.16,1.82,10.8
			c0.41,8.19,0.21,16.43,0.62,24.63c0.35,6.64,3.7,11.38,10.37,13.08c4.37,1.1,8.84,2.11,13.35,2.46c7.91,0.62,15.87,0.6,23.07-3.75
			c0.6-0.37,1.47-0.35,2.23-0.39c6.56-0.37,12.06-4.8,13.22-10.64c1.49-7.47-0.87-12.46-7.7-15.66c-2.77-1.3-5.75-2.13-8.63-3.17
			c0.06-0.15,0.08-0.37,0.19-0.46c0.6-0.46,1.22-0.95,1.88-1.37c18.6-12.11,29.92-29.59,36.75-50.26
			c6.15-18.67,6.58-38.06,6.06-57.4c-0.72-26.76-2.03-53.51-3.19-80.25c-0.1-2.19,0.46-3.12,2.61-3.95
			c7.16-2.84,14.2-6.06,21.29-9.13c0.85-0.37,1.66-0.81,3.06-1.47c-0.33,2.79-0.54,4.97-0.85,7.14
			c-3.58,25.16-7.14,50.31-10.76,75.47c-2.34,16.16-4.78,32.3-7.1,48.48c-0.91,6.39,2.15,10.29,8.24,10.74
			c16.58,1.22,33.19,2.3,49.75,3.72c4.1,0.35,7.72-0.33,11.49-1.84c24.48-9.83,49.02-19.51,73.54-29.24
			C825.97,687.95,827.73,684.45,825.62,677.29z M493.86,531.09c-15,27.27-29.76,54.11-44.55,81.01c4.47-32.63,3.04-65.08-7.14-97.65
			C459.03,522.28,475.88,527.55,493.86,531.09z M720.1,549.86c0.45,2.59,0.77,4.51,1.12,6.62c-2.34,0.43-4.39,0.79-7.26,1.32
			C716.21,554.89,717.97,552.61,720.1,549.86z M728.07,554.75c-0.56,0-1.47-0.66-1.57-1.12c-0.48-2.32-0.74-4.66-1.1-7.2
			c1.76,0,2.83,0.12,3.87-0.04c2.24-0.31,2.98,0.75,3.37,2.83C733.47,553.83,732.81,554.79,728.07,554.75z M758.32,527.8
			c6.08,4.88,9.04,11.2,10.57,18.85c-2.55,0.48-4.61,0.87-7.18,1.35c0-1.22,0-2.23,0.02-3.19c0.06-4.82-0.95-9.33-3.48-13.53
			C757.68,530.41,757.97,529.04,758.32,527.8z M746.09,541.58c2.63-1.76,4.88-4.06,7.3-6.13c2.09,2.09,3.7,10.68,2.24,13.14
			c-0.33,0.56-1.24,0.75-1.9,1.1c-0.15,0.08-0.37,0.06-0.56,0.1c-4.55,0.91-9.1,1.8-14.11,2.79c-0.56-2.23-1.08-4.41-1.61-6.5
			C740.51,544.52,743.49,543.32,746.09,541.58z"/>
		<g>
			<g>
				<path class="st2" d="M609.72,430.03c3.64-0.31,7.51-0.46,11.3-1.01c2.05-0.29,4.14-1.01,5.92-2.05
					c0.95-0.54,1.72-2.19,1.68-3.31c-0.02-0.68-1.68-1.64-2.75-1.86c-2.63-0.54-5.32-0.87-8.01-1.01
					c-6.5-0.31-12.93,0.27-18.98,2.81c-1.37,0.58-2.32,2.19-3.44,3.33c1.34,0.75,2.59,1.95,4.01,2.19
					C602.73,429.67,606.12,429.76,609.72,430.03z"/>
				<path class="st2" d="M661.25,433.65c-3.33-3.73-6.87-7.49-10.95-10.28c-23.09-15.71-47.57-17.42-72.88-5.94
					c-13.08,5.94-25.08,13.8-36.19,22.85c-4.92,4.03-9.4,8.59-13.74,13.26c-4.43,4.78-5.73,10.7-4.33,17.03
					c2.77,12.68,10.82,21.67,21.27,28.54c15.75,10.33,33.21,16.78,51.42,21.34c11.26,2.83,21.4,0.52,30.4-6.87
					c7.68-6.31,13.14-14.07,15.96-23.65c0.33-1.12,0.79-2.23,1.2-3.31c0.33,0.06,0.66,0.12,0.99,0.17
					c-0.19,2.88-0.41,5.75-0.64,9.17c2.36-2.19,4.55-4.06,6.6-6.1c8.07-8.07,14.17-17.34,16.93-28.54
					C669.8,451.13,668.37,441.66,661.25,433.65z M586.34,428.31c6.23-6.44,14.22-9.06,22.83-10.22c1.53-0.19,3.08-0.27,5.24-0.45
					c6.56,0.21,13.7,0.52,19.99,4.72c6.13,4.1,7.7,10,4.47,16.64c-8.05,16.62-31.35,25.1-48.67,12.31
					c-2.63-1.92-4.92-4.72-6.44-7.62C580.81,438.08,581.91,432.92,586.34,428.31z M639.58,466.2c-2.55,1.47-5.4,2.61-8.24,3.44
					c-1.8,0.52-2.28,1.49-2.88,3.04c-1.97,5.11-3.5,10.57-6.44,15.07c-8.96,13.68-25.2,16.6-38.45,6.99
					c-8.59-6.23-14.15-14.94-17.47-25.02c-0.5-1.53-1.32-3.44,1.74-3.54c-2.88-2.73-5.55-5.34-8.36-7.8
					c-0.46-0.43-1.59-0.33-2.34-0.15c-3.37,0.79-6.7,1.7-10.51,2.69c4.57-5.13,20.38-14.57,24.36-14.69
					c-2.67,2.73-5.26,5.38-7.88,8.07c0.1,0.33,0.1,0.68,0.27,0.85c10.02,10.18,21.81,15.66,36.3,12.62c3.35-0.7,6.46-2.88,9.4-4.82
					c1.51-0.99,2.4-1.51,4.26-0.66c9.19,4.3,24.44,2.07,30.92-8.01c1.97-3.04,3.04-6.68,4.33-9.62
					C651.28,451.28,647.24,461.79,639.58,466.2z"/>
				<path class="st2" d="M543.44,415.27c1.12-0.33,2.26-0.68,3.39-1.01c2.69-0.52,5.38-1.28,8.09-1.7c-2.71,0.43-5.38,1.18-8.09,1.7
					C545.7,414.59,544.58,414.94,543.44,415.27z"/>
				<path class="st2" d="M656.32,388.1c0.15-0.7,0.25-1.39,0.31-2.09C656.57,386.71,656.47,387.4,656.32,388.1z"/>
				<path class="st2" d="M651.26,674.04c1.16-1.43,1.97-3.35,2.38-5.17c3.25-14.49,4.33-29.24,4.55-44.04
					c0.33-22.76-2.19-45.36-4.28-67.96c-0.21-2.4-0.52-4.8-0.77-7.2c-0.25-2.38-0.48-4.78-0.72-7.16
					c-1.22,8.79-6.44,13.78-14.49,16.12c-4.06,1.18-8.26,2.03-12.42,2.77c-5.38,0.95-10.78,1.63-16.45,2.46
					c0.46,0.48,0.62,0.77,0.85,0.89c12.37,6.08,12.38,21.5,4.26,28.79c-0.68,0.6-1.08,1.84-1.08,2.79
					c-0.12,6.42-3.08,11.22-8.98,13.28c-5.59,1.94-11.55,2.9-17.42,3.93c-2.09,0.37-3.5,0.93-4.64,2.77
					c-3.41,5.59-8.15,9.83-14.17,12.44c-3.97,1.72-8.09,3.1-12.42,4.74c0,0.23-0.06,0.52,0,0.79c2.71,10.22,5.96,20.22,11.3,29.41
					c5.11,8.8,11.3,16.66,20.45,21.65c7.43,4.04,15.42,5.98,23.86,6.48C627.54,692.73,640.91,686.79,651.26,674.04z"/>
				<path class="st2" d="M646.35,405.3c-2.65-0.72-5.48-0.93-8.2-1.41c0,0,0,0-0.02,0C640.87,404.37,643.7,404.57,646.35,405.3z"/>
				<path class="st2" d="M655.95,380.44c0.46,1.39,0.7,2.81,0.72,4.26C656.64,383.24,656.41,381.81,655.95,380.44z"/>
				<path class="st2" d="M752.76,514.7L752.76,514.7c0.52-7.3-4.86-14.55-10.41-14.4C747.92,500.14,753.29,507.4,752.76,514.7z"/>
				<g>
					<path class="st3" d="M547.93,413.33c6.71-4.3,9.42-10.57,8.71-18.31c-0.21-2.34-1.28-4.61-2.05-7.22
						c-5.09,4.61-8.65,5.15-12.04,2.26c-3.25-2.77-3.33-7.01-0.02-11.9c-3.58-1.16-7.08-1.18-10.55-0.17
						c-7.84,2.26-13.55,10.28-13.28,18.42c0.31,9.27,6.27,16.95,14.96,18.62c3.15,0.6,6.52,0.17,9.77,0.21
						c1.12-0.33,2.26-0.68,3.39-1.01C547.19,413.95,547.52,413.59,547.93,413.33z"/>
				</g>
				<g>
					<path class="st3" d="M559.48,458.38c2.81,2.46,5.46,5.07,8.34,7.8c-3.06,0.08-2.24,1.99-1.74,3.54
						c3.33,10.08,8.88,18.79,17.47,25.02c13.26,9.6,29.47,6.7,38.43-6.99c2.94-4.51,4.49-9.97,6.44-15.07
						c0.6-1.55,1.08-2.54,2.86-3.06c2.84-0.83,5.69-1.95,8.26-3.44c7.66-4.43,11.71-14.92,9.02-21.52c-1.3,2.96-2.38,6.58-4.33,9.64
						c-6.5,10.06-21.75,12.29-30.92,7.99c-1.84-0.87-2.73-0.35-4.24,0.66c-2.94,1.94-6.06,4.1-9.4,4.8
						c-14.49,3.06-26.28-2.42-36.3-12.6c-0.17-0.17-0.15-0.52-0.25-0.87c2.61-2.67,5.21-5.34,7.88-8.07
						c-3.97,0.12-19.8,9.56-24.36,14.67c3.83-0.99,7.16-1.9,10.51-2.69C557.89,458.05,559,457.98,559.48,458.38z"/>
				</g>
				<g>
					<path class="st3" d="M634.43,422.37c-6.27-4.2-13.43-4.51-19.99-4.72c-2.17,0.17-3.72,0.25-5.24,0.45
						c-8.61,1.16-16.6,3.77-22.83,10.22c-4.45,4.59-5.53,9.77-2.55,15.4c1.53,2.88,3.81,5.69,6.44,7.62
						c17.32,12.77,40.62,4.3,48.67-12.31C642.13,432.38,640.54,426.47,634.43,422.37z M626.92,427c-1.78,1.03-3.89,1.74-5.92,2.03
						c-3.79,0.56-7.66,0.72-11.3,1.01c-3.58-0.29-6.97-0.37-10.28-0.91c-1.43-0.23-2.67-1.43-4.03-2.17
						c1.14-1.14,2.09-2.75,3.44-3.33c6.06-2.54,12.5-3.12,18.98-2.79c2.67,0.12,5.38,0.46,8.01,0.99c1.06,0.21,2.73,1.18,2.75,1.86
						C628.64,424.81,627.87,426.43,626.92,427z"/>
				</g>
			</g>
			<g>
				<g>
					<path class="st3" d="M825.62,677.29c-1.76-6.02-3.58-12.04-5.34-18.05c-10.47-36.11-20.92-72.22-31.37-108.33
						c-1.47-5.11-4.57-6.99-9.83-6c-1.49,0.27-2.98,0.54-4.57,0.81c-0.27-1.18-0.46-2.01-0.66-2.84
						c-1.37-5.84-3.73-11.22-7.72-15.73c-1.82-2.09-4.9-3.46-5.82-5.81c-0.95-2.36,0.31-5.5,0.15-8.26
						c-0.56-10.02-8.32-21.52-21.6-19.14c-1.34,0.23-3.04-0.37-4.26-1.1c-5.82-3.52-11.71-3.08-16.26,1.99
						c-2.21,2.46-4.12,5.46-5.26,8.53c-1.39,3.77-2.07,7.86-2.57,11.86c-0.31,2.48-1.24,3.66-3.58,4.45
						c-13.57,4.66-27.54,5.86-41.76,4.97c-1.22-0.08-2.4-0.37-3.64-0.54c-0.08-1.08-0.08-1.86-0.23-2.59
						c-0.72-3.31,0.6-4.78,3.87-5.96c24.56-9,46.97-21.63,66.41-39.38c26.43-24.09,41.01-53.76,42.98-89.56
						c0.14-2.52-0.56-3.25-3.06-3.52c-21.07-2.32-39.98-10.06-56.7-23.14c-1.04-0.81-2.03-1.7-3.1-2.57
						c0.27-0.56,0.41-0.93,0.6-1.24c14.69-22.31,20.36-46.93,18.62-73.4c-0.56-8.51-1.88-16.93-5.88-24.63
						c-3.89-7.49-10.78-11.3-19.06-10.39c-3.83,0.43-7.68,0.99-11.42,1.9c-21.5,5.28-40.06,16.06-56.54,30.63
						c-1.9,1.68-3.23,2.17-5.71,0.91c-11.05-5.67-22.7-9.25-35.26-9.29c-0.21,0-0.45-0.23-1.41-0.81
						c5.11-4.99,9.97-9.75,15.04-14.71c-0.95-0.23-1.84-0.52-2.73-0.7c-17.15-3.41-33.85-1.08-50.33,3.95
						c-11.88,3.64-22.47,9.33-30.3,19.33c-0.56,0.72-1.76,1.1-2.75,1.3c-10.84,2.07-20.65,6.39-29.41,13.04
						c-1.49,1.12-2.48,0.97-4.06,0.08c-8.17-4.59-16.22-9.46-24.71-13.35c-16.68-7.64-34.14-12.38-52.77-11.09
						c-11.55,0.81-18.04,6.71-19.91,18.15c-1.74,10.6-1.28,21.21,0.66,31.74c4.86,26.65,16.87,49.17,38.34,66.2
						c0.43,0.33,0.75,0.79,1.24,1.3c-13.72,21.6-32.55,34.12-59.39,34.14c2.75,8.32,5.34,16.14,8.05,24.38
						c-0.7-0.27-1.06-0.39-1.39-0.56c-13.97-6.79-28.7-10.89-44.22-11.96c-19.58-1.34-37.87,2.65-54.36,13.7
						c-23.14,15.52-34.46,43.91-27.54,69.53c3.75,13.86,11.42,24.25,26.59,26.51c5.46,0.81,11.15,0.29,16.72,0.02
						c4.53-0.21,9.02-1.35,13.51-1.34c6.87,0.06,11.24,4.14,12.13,10.93c0.43,3.23,0.62,6.58,0.27,9.81
						c-1.32,11.61-3.12,23.16-4.37,34.77c-3.87,35.45,3.7,68.25,23.71,97.92c27.54,40.77,72.34,54.57,111.04,43.99
						c0.93-0.25,2.4,0.37,3.19,1.06c5.13,4.55,10.18,9.17,15.13,13.89c0.7,0.66,1.37,2.11,1.1,2.86c-1.7,4.9-3.5,9.75-5.61,14.49
						c-1.24,2.75-3.73,3.89-6.85,4.66c-3.93,0.99-7.93,2.63-11.17,5.01c-2.34,1.72-4.28,4.92-4.97,7.78
						c-1.95,8.07,2.98,14.69,11.22,16.24c1.3,0.25,3,0.72,3.64,1.68c4.24,6.31,8.21,8.05,15.73,6.64c0.95-0.17,2.11-0.02,3,0.39
						c10.88,4.9,20.53-0.25,22.2-12.06c0.56-4.1,0.5-8.28,0.68-12.44c0.08-1.61,0.6-2.38,2.4-2.42c19.39-0.31,35.8-8.22,50.24-20.45
						c4.01-3.39,7.61-5.75,12.98-4.76c1.95,0.37,4.06,0.1,6.08-0.17c2.26-0.31,3.5,0.54,3.91,2.71c0.68,3.58,1.64,7.16,1.82,10.8
						c0.41,8.19,0.21,16.43,0.62,24.63c0.35,6.64,3.7,11.38,10.37,13.08c4.37,1.1,8.84,2.11,13.35,2.46
						c7.91,0.62,15.87,0.6,23.07-3.75c0.6-0.37,1.47-0.35,2.23-0.39c6.56-0.37,12.06-4.8,13.22-10.64
						c1.49-7.47-0.87-12.46-7.7-15.66c-2.77-1.3-5.75-2.13-8.63-3.17c0.06-0.15,0.08-0.37,0.19-0.46c0.6-0.46,1.22-0.95,1.88-1.37
						c18.6-12.11,29.92-29.59,36.75-50.26c6.15-18.67,6.58-38.06,6.06-57.4c-0.72-26.76-2.03-53.51-3.19-80.25
						c-0.1-2.19,0.46-3.12,2.61-3.95c7.16-2.84,14.2-6.06,21.29-9.13c0.85-0.37,1.66-0.81,3.06-1.47c-0.33,2.79-0.54,4.97-0.85,7.14
						c-3.58,25.16-7.14,50.31-10.76,75.47c-2.34,16.16-4.78,32.3-7.1,48.48c-0.91,6.39,2.15,10.29,8.24,10.74
						c16.58,1.22,33.19,2.3,49.75,3.72c4.1,0.35,7.72-0.33,11.49-1.84c24.48-9.83,49.02-19.51,73.54-29.24
						C825.97,687.95,827.73,684.45,825.62,677.29z M724.78,379.02c6.89,3.66,14.15,6.66,21.36,9.64c2.98,1.22,2.83,3.23,2.57,5.59
						c-0.27,2.61-1.86,3.13-4.24,3.06c-17.42-0.52-32.03-7.72-44.3-19.53c-6.79-6.54-12.73-14.01-18.85-21.23
						c-7.37-8.67-15.23-16.8-25.21-22.43c-13.58-7.66-27.6-9.08-41.68-1.26c-9,4.99-13.26,13.45-15.83,22.97
						c-0.23,0.83-0.46,1.68-0.72,2.5c-0.02,0.06-0.15,0.08-0.5,0.25c0-7.62-0.79-15.21,0.17-22.58
						c1.99-15.27,12.44-24.21,27.94-25.08c15.17-0.85,28.47,3.95,39.59,14.07c7.04,6.42,13.51,13.53,19.95,20.59
						C696.86,358.51,709.2,370.72,724.78,379.02z M655.95,380.44c-0.46-1.37-1.18-2.73-2.13-3.99c-4.08,4.45-8.55,5.36-11.98,2.48
						c-3.46-2.94-3.39-7.8,0.54-12.42c-5.24-1.82-10-1.12-14.42,1.59c-6.64,4.1-9.54,10.35-8.77,18c0.93,9.29,6.35,14.96,14.2,16.93
						c-3.6,0-8.3,0.1-13-0.08c-0.97-0.04-2.15-0.85-2.81-1.66c-7.28-8.88-8.13-18.91-3.95-29.16c4.03-9.89,11.9-15.4,22.6-15.96
						c11.24-0.58,19.89,4.41,25.41,14.17c5.88,10.39,4.68,22.27-2.63,31.21c-3.02,3.7-6.39,5.92-11.53,4.14
						c-0.37-0.12-0.74-0.23-1.12-0.35c-2.65-0.72-5.48-0.93-8.21-1.41c9.54-1.39,16.55-8.34,18.15-15.79
						c0.15-0.7,0.27-1.39,0.31-2.09c0.04-0.45,0.06-0.87,0.04-1.32C656.66,383.24,656.41,381.81,655.95,380.44z M625.55,339.31
						c10.43-10.31,28.85-6.66,35.57,7.2C650.37,337.48,639.19,332.15,625.55,339.31z M689.89,281.78c3.44-2.07,6.71-4.59,10.39-6.1
						c4.06-1.64,5.9,0.1,7.26,6.35c-3.1-4.9-6.81-4.28-10.72-2.48c-2.15,0.99-4.3,1.99-6.44,3
						C690.22,282.31,690.06,282.03,689.89,281.78z M645.27,287.96c16.2-14.17,34.21-24.83,55.58-29.05c1.43-0.29,2.86-0.46,4.3-0.66
						c6.87-0.85,9.64,0.91,11.96,7.62c-18.83-5.21-35.32,1.43-51.2,10.37c-6.46,3.64-12.38,8.21-18.58,12.31
						c-0.7,0.46-1.57,0.66-2.36,0.97c-0.12-0.23-0.23-0.46-0.35-0.7C644.84,288.54,644.99,288.19,645.27,287.96z M619.3,286.48
						c12.64,4.72,23.07,12.73,32.59,22.14c-11.24-9.15-23.61-16.29-37.39-20.92C616.3,285.73,616.8,285.56,619.3,286.48z
						 M609.41,280.12c-10.66,1.95-21.25,4.01-31.14,8.69C587.17,280.58,597.97,279.13,609.41,280.12z M594.99,261.1
						c-10.99,6.02-21.98,12.06-32.97,18.07c-0.14-0.27-0.27-0.54-0.41-0.81C571.65,270.6,582.64,264.6,594.99,261.1z M404.65,288.44
						c-0.45-3.95,2.07-7.35,6.33-8.3c7.51-1.68,15-0.99,22.47,0.31c21.6,3.77,40.5,13.68,58.4,25.83c0.64,0.43,1.26,0.89,1.9,1.32
						c0.15,0.1,0.35,0.15,0.64,0.25c1.95-1.76,3.89-3.64,5.96-5.34c8.96-7.37,19.22-11.73,30.77-13.06
						c1.18-0.14,2.65-1.06,3.29-2.07c6-9.42,15.27-14.28,25.12-18.42c-2.5,1.43-5.07,2.75-7.49,4.3c-2.01,1.3-4.03,2.73-5.77,4.35
						c-6.79,6.35-7.62,9.6-5.22,20.05c-0.79,0-1.49,0.04-2.21-0.02c-14.26-0.7-27.96,1.18-40.43,8.79
						c-1.45,0.89-3.43,1.72-1.04,3.93c-0.19,0.15-0.37,0.29-0.56,0.45c-3.7-2.24-7.37-4.51-11.09-6.71
						c-14.28-8.51-29.07-15.83-45.71-18.35c-11.57-1.76-23.11-2.11-34.25,2.55C405.42,288.4,405.04,288.4,404.65,288.44z
						 M417.91,303.11c0.35-6.08,2.83-7.88,8.4-5.84c3.04,1.1,5.86,2.75,8.8,4.14C429.19,301.39,423.07,295.79,417.91,303.11z
						 M326.32,454.3c-16.41,1.39-31.99,5.26-45.46,15.38c-6.1,4.59-10.93,10.28-15.02,17.3c7.2-31.83,43.7-49.27,76.71-43.27
						c-4.22,3.29-8.24,6.58-12.42,9.64C329.14,454.07,327.61,454.18,326.32,454.3z M340.73,453.8c-0.12-0.27-0.23-0.5-0.35-0.77
						c4.39-2.36,8.75-4.78,13.24-6.99c0.25-0.12,0.56-0.15,0.91-0.12l5.63,1.47c0.79,0.19,1.63,0.41,2.52,0.66l0.17,0.04
						c5.82,1.61,13.89,4.35,22.76,8.94l3.75,11.13C373.63,459.8,357.8,454.65,340.73,453.8z M426.48,439.48
						c-2.63,0.12-4.8-1.28-6.21-3.64c-2.15-3.62-1.8-5.05,1.88-7.04c16.14-8.79,27.81-21.94,36.77-37.7
						c7.3-12.87,14.05-26.03,21.67-38.68c7.41-12.29,17.32-22.27,30.54-28.45c9.52-4.45,19.49-6.15,29.92-3.87
						c10.22,2.26,18.19,7.8,23.86,16.6c4.59,7.12,7.37,15.02,9.54,23.16c-4.84-6.37-10.2-12.09-17.2-15.87
						c-16.72-9.04-33.03-8.05-48.67,2.65c-8.98,6.15-15.35,14.63-20.3,24.21c-4.84,9.35-9.37,18.87-14.3,28.18
						c-5.3,9.95-11.79,19.08-19.89,26.98c-5.3,5.19-11.24,9.54-18.29,11.98C432.86,438.95,429.61,439.32,426.48,439.48z
						 M493.86,531.09c-15,27.27-29.76,54.11-44.55,81.01c4.47-32.63,3.04-65.08-7.14-97.65
						C459.03,522.28,475.88,527.55,493.86,531.09z M499.47,551.81c-16.1,28.49-30.98,57.53-40.87,88.88
						c-4.92,15.58-8.21,31.45-7.8,47.86c0.15,6.06,1.14,12.11,1.76,18.15c0.08,0.83,0.25,1.64,0.39,2.46
						c-0.33,0.08-0.64,0.15-0.97,0.23c-1.37-5.77-3.12-11.48-4.06-17.3c-3.52-21.79-0.81-42.88,7.14-63.45
						c8.59-22.27,20.26-42.96,32.12-63.59c2.46-4.28,5.03-8.5,7.22-12.89c1.66-3.33,4.12-5.21,8.3-5.94
						C501.52,548.27,500.48,550.03,499.47,551.81z M501.35,368.71c0.54-7.35,2.44-14.11,8.94-18.58c8.01-5.52,16.53-5.55,25.21-1.99
						C519.31,344.67,507.33,351.89,501.35,368.71z M510.58,389.05c2.9-12.79,14.78-21.91,28.02-21.48
						c19.54,0.62,32.28,19.89,25.93,38.94c-1.22,3.66-2.86,5.55-6.91,5.77c-0.91,0.06-1.82,0.15-2.71,0.31
						c-2.71,0.43-5.38,1.18-8.09,1.7c-1.12,0.35-2.26,0.68-3.39,1.01c-4.06,1.76-8.07,3.72-12.25,5.19
						c-1.63,0.56-3.87,0.56-5.44-0.1C513.64,415.23,507.52,402.44,510.58,389.05z M523.14,470.58c-1.39-6.33-0.1-12.25,4.33-17.03
						c4.33-4.66,8.82-9.23,13.74-13.26c11.11-9.06,23.11-16.91,36.19-22.85c25.31-11.49,49.77-9.79,72.88,5.94
						c4.08,2.79,7.62,6.54,10.95,10.28c7.12,8.01,8.55,17.45,6.02,27.67c-2.79,11.2-8.88,20.47-16.93,28.54
						c-2.03,2.03-4.22,3.91-6.6,6.1c0.23-3.43,0.45-6.31,0.64-9.17c-0.33-0.06-0.66-0.12-0.99-0.17c-0.41,1.1-0.85,2.21-1.2,3.31
						c-2.84,9.58-8.28,17.36-15.96,23.65c-9.02,7.39-19.14,9.7-30.4,6.87c-18.19-4.57-35.66-10.99-51.42-21.34
						C533.96,492.27,525.93,483.27,523.14,470.58z M610.57,571.9c-4.74-1.2-9.77-2.48-13.8-3.48
						C601.14,568.03,606.5,567.84,610.57,571.9z M596.69,557.44c-9.46,0.08-15.54,5.15-19.62,13.39
						C576.55,562.18,588.39,554.1,596.69,557.44z M544.31,586.06c-2.13-1.12-4.12-3.43-5.05-5.65c-1.55-3.75-2.21-7.9-3.23-11.88
						c0.29-0.04,0.56-0.1,0.83-0.14c5.81,15.21,13.06,18.98,31.68,16.68c-0.66,0.66-1.22,1.68-1.99,1.92
						C559.02,589.41,551.45,589.9,544.31,586.06z M611.07,691.76c-8.44-0.5-16.43-2.42-23.86-6.48
						c-9.15-4.99-15.33-12.83-20.45-21.65c-5.34-9.19-8.59-19.2-11.32-29.41c-0.06-0.27,0-0.56,0-0.79
						c4.33-1.64,8.46-3.02,12.42-4.74c6-2.63,10.74-6.85,14.17-12.44c1.12-1.86,2.54-2.4,4.64-2.77c5.86-1.03,11.8-1.99,17.42-3.93
						c5.92-2.03,8.86-6.85,8.98-13.26c0.02-0.95,0.43-2.21,1.1-2.79c8.13-7.3,8.09-22.72-4.28-28.79c-0.23-0.1-0.39-0.39-0.85-0.87
						c5.67-0.83,11.09-1.51,16.47-2.46c4.18-0.74,8.36-1.59,12.42-2.77c8.03-2.34,13.28-7.33,14.47-16.12
						c0.23,2.38,0.46,4.78,0.72,7.16c0.27,2.4,0.56,4.8,0.79,7.22c2.09,22.62,4.61,45.21,4.28,67.98
						c-0.21,14.8-1.3,29.55-4.55,44.04c-0.43,1.82-1.22,3.73-2.38,5.17C640.91,686.79,627.54,692.73,611.07,691.76z M635.28,799.12
						c-4.22-5.77-9.75-8.82-16.62-10.22C628.47,787.84,637.51,793.32,635.28,799.12z M659.88,698.83
						c-1.08,12.37-3.68,24.44-8.59,35.92c-6.04,14.09-15.31,25.58-27.96,34.46c22.83-25.72,32.72-56.68,36.46-90.2
						c0.35,0.08,0.7,0.17,1.04,0.27C660.51,685.78,660.44,692.32,659.88,698.83z M681.22,533.85c-5.46,0.48-10.95,0.45-16.43,0.48
						c-0.95,0.02-1.92-0.77-2.86-1.2c0.17-0.14,0.35-0.27,0.5-0.41c5.19,0,10.37,0.21,15.56-0.06c5.17-0.27,10.31-1.03,15.58-1.08
						C689.44,532.36,685.36,533.47,681.22,533.85z M726,499.52c2.38-0.95,4.45,0.27,6.62,2.52c-5.67,0.1-9.87,2.07-13.08,6.12
						C720.76,504.52,722.23,501.03,726,499.52z M720.1,549.86c0.45,2.59,0.77,4.51,1.12,6.62c-2.34,0.43-4.39,0.79-7.26,1.32
						C716.21,554.89,717.97,552.61,720.1,549.86z M721.34,565.88c-0.04-0.29-0.1-0.56-0.14-0.83c3.43-0.74,6.85-1.45,10.28-2.19
						c0.06,0.33,0.14,0.64,0.19,0.97C728.22,564.51,724.78,565.2,721.34,565.88z M728.07,554.75c-0.56,0-1.47-0.66-1.57-1.12
						c-0.48-2.32-0.74-4.66-1.1-7.2c1.76,0,2.83,0.12,3.87-0.04c2.24-0.31,2.98,0.75,3.37,2.83
						C733.47,553.83,732.81,554.79,728.07,554.75z M758.32,527.8c6.08,4.88,9.04,11.2,10.57,18.85c-2.55,0.48-4.61,0.87-7.18,1.35
						c0-1.22,0-2.23,0.02-3.19c0.06-4.82-0.95-9.33-3.48-13.53C757.68,530.41,757.97,529.04,758.32,527.8z M742.35,500.3
						c0.72-0.02,1.43,0.08,2.13,0.29c0.31,0.1,0.64,0.21,0.95,0.35s0.62,0.31,0.93,0.48c0.6,0.35,1.2,0.79,1.74,1.3
						c0.15,0.12,0.29,0.27,0.41,0.41c0.15,0.15,0.31,0.33,0.46,0.48c0.04,0.04,0.08,0.08,0.1,0.12c0.08,0.08,0.15,0.15,0.21,0.23
						v0.02c0.06,0.06,0.1,0.12,0.14,0.17c0.04,0.04,0.06,0.08,0.1,0.12c0.06,0.06,0.1,0.12,0.12,0.17c0.17,0.21,0.33,0.45,0.48,0.68
						c0.04,0.06,0.08,0.1,0.1,0.15c0.04,0.04,0.06,0.08,0.08,0.12c0.04,0.06,0.06,0.1,0.08,0.14c0.08,0.12,0.15,0.25,0.23,0.37
						c0.08,0.12,0.15,0.23,0.21,0.37c0.19,0.33,0.37,0.68,0.52,1.03c0.02,0.04,0.04,0.06,0.04,0.1c0.04,0.06,0.06,0.1,0.08,0.15
						c0.04,0.08,0.06,0.15,0.1,0.23c0.02,0.04,0.04,0.06,0.04,0.1c0.04,0.08,0.06,0.15,0.1,0.23c0.02,0.06,0.06,0.14,0.08,0.19
						c0.06,0.1,0.08,0.21,0.12,0.31c0.17,0.48,0.33,0.99,0.45,1.49c0.04,0.15,0.08,0.29,0.1,0.43c0.04,0.21,0.08,0.43,0.12,0.62
						c0.04,0.15,0.06,0.29,0.08,0.45c0.04,0.14,0.04,0.27,0.06,0.41c0,0.02,0.02,0.06,0.02,0.08c0.04,0.27,0.06,0.56,0.08,0.83v0.04
						c0.02,0.08,0.02,0.17,0.02,0.27v0.12c0.02,0.12,0.02,0.25,0.02,0.37c0,0.33-0.02,0.66-0.04,0.99c-0.85-1.7-1.43-3.68-2.54-5.15
						c-0.15-0.21-0.33-0.43-0.5-0.6c-2.07-2.15-4.72-3.72-7.14-5.5c-0.95-0.7-1.92-1.32-3.29-2.24
						C740.28,500.63,741.33,500.34,742.35,500.3z M746.09,541.58c2.63-1.76,4.88-4.06,7.3-6.13c2.09,2.09,3.7,10.68,2.24,13.14
						c-0.33,0.56-1.24,0.75-1.9,1.1c-0.15,0.08-0.37,0.06-0.56,0.1c-4.55,0.91-9.1,1.8-14.11,2.79c-0.56-2.23-1.08-4.41-1.61-6.5
						C740.51,544.52,743.49,543.32,746.09,541.58z M738,562.53c-0.06-0.31-0.12-0.62-0.19-0.95c10.51-2.11,21.04-4.22,31.54-6.33
						c0.06,0.35,0.1,0.7,0.15,1.05C758.99,558.37,748.51,560.46,738,562.53z"/>
				</g>
			</g>
		</g>
	</g>
</g>
</svg>
